<?xml version="1.0" standalone="no"?>
<!DOCTYPE svg PUBLIC "-//W3C//DTD SVG 20010904//EN"
 "http://www.w3.org/TR/2001/REC-SVG-20010904/DTD/svg10.dtd">
<svg version="1.0" xmlns="http://www.w3.org/2000/svg"
 width="1600.000000pt" height="1280.000000pt" viewBox="0 0 1600.000000 1280.000000"
 preserveAspectRatio="xMidYMid meet">

<g transform="translate(0.000000,1280.000000) scale(0.100000,-0.100000)"
fill="#000000" stroke="none">
<path d="M980 10670 l0 -680 400 0 400 0 0 85 0 85 -302 2 -303 3 -3 593 -2
592 -95 0 -95 0 0 -680z"/>
<path d="M4658 11318 c-2 -18 -2 -324 0 -680 l2 -648 95 0 95 0 0 521 c0 301
4 519 9 517 5 -1 100 -117 212 -255 153 -192 208 -253 224 -253 17 0 71 62
226 256 l204 256 3 -521 2 -521 100 0 100 0 0 680 0 680 -93 0 -93 0 -218
-270 c-120 -149 -222 -272 -226 -275 -8 -5 -44 37 -317 378 l-135 167 -93 0
-94 0 -3 -32z"/>
<path d="M7900 11110 c0 -132 -1 -240 -2 -240 -2 0 -25 7 -52 15 -30 9 -89 15
-150 15 -116 -1 -178 -20 -265 -84 -132 -97 -197 -297 -157 -484 30 -142 107
-247 224 -304 l66 -33 258 -3 258 -3 0 680 0 681 -90 0 -90 0 0 -240z m-109
-370 c30 -6 66 -15 82 -21 l27 -11 0 -286 0 -285 -145 5 c-153 5 -166 9 -228
67 -59 53 -72 94 -72 221 0 93 4 122 19 150 49 93 109 143 193 159 66 12 64
12 124 1z"/>
<path d="M8350 10670 l0 -680 400 0 400 0 0 85 0 85 -302 2 -303 3 -3 593 -2
592 -95 0 -95 0 0 -680z"/>
<path d="M10150 10692 l0 -658 48 -17 c64 -22 214 -47 287 -47 179 1 352 95
419 229 121 241 35 571 -174 670 -48 23 -68 26 -160 26 -98 0 -109 -3 -169
-33 -34 -17 -67 -32 -72 -32 -5 0 -9 113 -9 260 l0 260 -85 0 -85 0 0 -658z
m492 16 c83 -46 138 -152 138 -268 0 -124 -55 -224 -150 -273 -52 -27 -60 -28
-160 -25 -162 7 -150 -15 -150 266 l0 238 28 21 c32 24 87 53 122 64 41 14
127 2 172 -23z"/>
<path d="M2050 10887 c-67 -20 -114 -44 -146 -78 -26 -27 -28 -35 -30 -119 -1
-50 1 -90 6 -90 5 0 26 16 47 35 21 20 67 50 103 68 154 76 290 18 290 -125 0
-56 8 -51 -160 -108 -148 -49 -222 -95 -265 -165 -26 -42 -30 -58 -30 -119 0
-53 5 -80 20 -106 27 -45 101 -95 155 -104 59 -9 148 11 216 48 l58 33 21 -31
c42 -63 144 -70 240 -18 45 24 50 31 53 66 5 61 -1 67 -45 45 -21 -11 -47 -18
-58 -17 -19 3 -20 13 -26 288 -4 157 -12 300 -17 318 -25 77 -78 133 -158 167
-52 22 -214 29 -274 12z m270 -592 l0 -135 -41 -27 c-46 -31 -132 -42 -177
-24 -37 16 -63 61 -64 112 0 43 19 79 63 111 22 17 195 96 212 97 4 1 7 -60 7
-134z"/>
<path d="M3124 10882 c-28 -10 -75 -37 -105 -61 l-54 -43 -3 51 c-4 60 -11 64
-112 59 l-65 -3 -3 -447 -2 -448 90 0 90 0 0 318 0 318 35 41 c48 56 106 83
181 83 81 0 122 -23 154 -86 25 -49 25 -51 28 -361 l3 -313 90 0 89 0 0 269
c0 380 -17 475 -101 560 -72 73 -211 100 -315 63z"/>
<path d="M9433 10890 c-50 -11 -110 -40 -152 -75 -31 -27 -31 -27 -31 -127 l0
-101 48 45 c70 65 153 103 227 103 109 -1 165 -53 165 -155 l0 -55 -127 -44
c-195 -67 -242 -95 -300 -183 -22 -33 -27 -52 -27 -106 -1 -113 55 -184 166
-212 61 -16 170 7 239 50 l48 29 13 -27 c16 -33 58 -54 118 -59 36 -4 58 2
110 29 l65 33 3 53 c2 28 1 52 -2 52 -3 0 -21 -9 -40 -21 -19 -11 -45 -19 -58
-17 l-23 3 -5 290 c-5 267 -7 294 -26 335 -52 112 -135 161 -279 166 -49 2
-109 -1 -132 -6z m257 -595 l0 -135 -41 -27 c-31 -20 -57 -28 -104 -31 -58 -4
-65 -2 -96 26 -31 28 -34 35 -34 90 0 71 20 99 100 139 38 20 157 69 173 73 1
0 2 -61 2 -135z"/>
<path d="M11315 10891 c-91 -25 -161 -83 -185 -156 -15 -46 -8 -131 15 -174
27 -52 91 -108 208 -178 60 -36 125 -79 144 -96 30 -26 34 -35 31 -70 -3 -46
-32 -73 -91 -86 -56 -13 -123 4 -229 58 l-98 50 0 -94 0 -94 48 -21 c26 -12
80 -30 121 -41 206 -53 391 20 431 171 38 141 -44 252 -281 383 -85 47 -133
99 -124 136 20 84 135 91 290 17 39 -19 72 -32 74 -30 3 3 9 164 6 164 0 0
-34 14 -75 31 -61 25 -92 32 -165 35 -49 2 -103 0 -120 -5z"/>
<path d="M4095 10884 c-121 -10 -205 -43 -268 -103 -66 -62 -82 -103 -82 -206
0 -78 4 -97 27 -141 25 -48 74 -96 126 -123 28 -15 28 -27 -1 -35 -59 -14
-109 -82 -99 -133 3 -14 20 -41 39 -60 19 -19 33 -35 31 -36 -1 -2 -31 -16
-65 -32 -102 -47 -143 -107 -143 -207 1 -127 93 -219 265 -263 93 -24 280 -15
367 17 118 44 180 107 200 202 14 70 -4 140 -51 196 -40 49 -96 74 -258 115
-175 43 -188 48 -208 79 -31 47 6 81 105 97 158 25 242 73 292 166 52 95 49
190 -8 274 -19 28 -34 53 -34 55 0 2 38 4 85 4 l86 0 -3 68 -3 67 -180 1 c-99
0 -198 -1 -220 -2z m62 -175 c157 -76 102 -297 -76 -303 -59 -1 -121 26 -152
68 -34 45 -34 138 0 183 52 69 148 91 228 52z m79 -805 c45 -22 63 -38 77 -66
18 -37 18 -39 0 -75 -13 -27 -32 -45 -68 -63 -45 -22 -62 -25 -165 -25 -128 0
-173 11 -220 55 -25 23 -30 36 -30 73 0 54 26 92 84 119 35 16 59 18 152 15
99 -3 118 -6 170 -33z"/>
<path d="M6502 10874 c-133 -29 -256 -127 -315 -251 -28 -60 -32 -80 -35 -175
-6 -157 27 -243 130 -347 180 -179 514 -175 697 8 100 100 143 234 122 385
-39 276 -304 445 -599 380z m253 -179 c60 -29 129 -103 148 -160 50 -144 -10
-299 -139 -365 -42 -21 -63 -25 -139 -25 -73 1 -98 5 -132 23 -63 33 -105 74
-133 129 -35 68 -36 197 -2 263 40 76 97 127 172 151 44 15 181 4 225 -16z"/>
<path d="M10927 9203 l-919 -3 6 -38 c3 -20 51 -406 106 -857 56 -451 132
-1073 170 -1383 39 -310 70 -585 70 -612 0 -27 -47 -336 -104 -687 -58 -351
-123 -752 -146 -891 -23 -140 -39 -256 -36 -259 3 -3 118 7 257 21 138 15 253
25 254 24 1 -2 14 -100 29 -218 15 -118 28 -215 29 -216 4 -4 2200 295 2205
300 3 3 -54 452 -126 998 -73 546 -216 1631 -319 2411 l-188 1417 -185 -2
c-102 -2 -598 -4 -1103 -5z m1103 -192 c0 -9 72 -532 480 -3485 77 -555 139
-1010 137 -1011 -1 -1 -405 -56 -897 -124 -492 -67 -904 -124 -916 -126 -20
-4 -22 1 -32 93 -7 53 -97 814 -202 1691 -105 877 -197 1651 -205 1720 -8 69
-44 371 -80 670 -36 300 -65 553 -65 563 0 17 36 18 890 18 538 0 890 -4 890
-9z m-1515 -3912 c25 -194 41 -356 37 -360 -4 -4 -51 -10 -106 -13 l-99 -7 6
23 c3 13 29 179 58 370 29 191 54 346 56 344 2 -2 24 -162 48 -357z"/>
<path d="M11435 8571 c-11 -5 -29 -7 -40 -4 -12 2 -33 0 -47 -6 -18 -7 -28 -7
-30 1 -2 6 -17 3 -38 -9 -30 -17 -39 -32 -67 -109 -37 -105 -43 -189 -15 -244
9 -19 25 -36 34 -38 21 -4 51 42 74 113 31 95 61 105 166 55 50 -24 76 -30
130 -30 60 0 67 -2 74 -22 7 -22 7 -22 30 5 13 15 32 27 43 27 20 0 20 1 4 35
-12 26 -14 38 -6 46 9 9 7 17 -7 31 -10 11 -21 31 -25 45 -9 38 -35 72 -65 88
-32 17 -187 28 -215 16z"/>
<path d="M11165 7972 c-29 -27 -77 -53 -173 -91 l-133 -53 -39 -72 c-22 -39
-45 -96 -51 -126 -6 -30 -28 -109 -49 -175 -57 -177 -90 -311 -90 -366 0 -59
51 -211 108 -326 55 -108 142 -256 149 -250 2 3 -1 13 -7 24 -10 16 -6 25 31
61 l42 43 42 -41 41 -40 -32 -67 c-60 -123 -68 -273 -24 -468 30 -136 24 -239
-24 -393 -41 -132 -42 -136 -28 -472 11 -274 19 -324 68 -396 26 -38 27 -41
14 -94 -7 -30 -15 -76 -17 -101 l-5 -47 46 -17 c45 -17 138 -17 166 0 12 7 12
89 1 158 -7 44 -6 48 10 44 29 -8 36 54 14 133 -37 138 -39 153 -20 257 10 54
21 170 25 258 6 126 15 198 43 335 20 96 41 218 47 270 9 93 36 200 50 200 3
0 21 -66 39 -147 17 -82 45 -177 61 -213 21 -48 32 -93 40 -170 6 -58 24 -172
40 -255 16 -82 37 -206 46 -275 9 -69 27 -159 40 -200 20 -59 25 -100 27 -198
4 -146 4 -146 107 -155 38 -3 90 -15 116 -26 32 -15 68 -21 115 -21 71 0 153
24 146 43 -2 6 -34 24 -72 39 -82 34 -108 56 -143 123 -32 61 -33 68 -32 130
0 28 -16 151 -36 275 -30 186 -37 260 -42 430 -7 278 -7 306 3 452 5 87 4 170
-5 262 l-12 135 26 32 c22 25 26 40 26 90 0 33 4 58 9 55 14 -9 51 134 51 197
0 32 5 68 12 80 6 12 12 63 13 112 1 74 -4 106 -27 180 -21 64 -33 134 -44
240 -40 419 -31 391 -142 441 -48 21 -111 58 -139 81 -29 24 -54 43 -57 43 -2
0 11 -55 29 -123 50 -189 53 -233 20 -306 -15 -34 -31 -61 -36 -61 -10 0 -56
142 -69 218 -6 34 -8 77 -5 96 6 32 5 33 -19 29 -28 -6 -35 12 -16 35 6 6 8
10 4 8 -3 -2 -19 0 -36 5 -29 8 -30 8 -13 -11 9 -10 14 -23 11 -29 -4 -6 5
-37 19 -71 14 -33 28 -80 31 -104 7 -50 -4 -176 -15 -176 -4 0 -35 80 -70 178
-35 97 -79 223 -99 279 -25 69 -42 103 -52 103 -8 0 -33 -17 -55 -38z m550
-829 c-3 -19 -10 -31 -16 -27 -10 6 -6 43 9 89 6 18 7 18 10 -4 2 -13 1 -39
-3 -58z m-776 -57 c15 -81 14 -150 -4 -193 -20 -47 -19 -65 5 -86 21 -17 28
-71 10 -82 -12 -8 -37 41 -45 90 -4 22 -15 67 -25 100 -10 33 -20 87 -21 120
-3 54 0 63 27 92 16 17 32 28 35 25 3 -4 11 -34 18 -66z m538 -348 c-3 -8 -6
-5 -6 6 -1 11 2 17 5 13 3 -3 4 -12 1 -19z"/>
<path d="M12992 8884 c-7 -8 -28 -14 -47 -14 -29 0 -35 -4 -35 -20 0 -11 -7
-23 -15 -26 -8 -4 -12 -10 -9 -15 3 -5 -4 -17 -15 -27 -27 -22 -35 -106 -24
-247 l8 -100 22 38 c42 70 100 37 142 -80 12 -32 25 -65 30 -73 18 -33 218
-41 267 -11 27 16 34 30 52 102 35 141 38 206 12 267 -12 28 -20 60 -17 71 3
13 -1 21 -15 24 -11 3 -22 15 -25 26 -3 12 -14 21 -24 21 -10 0 -33 13 -51 29
-30 26 -44 30 -118 36 -47 3 -94 8 -105 10 -11 2 -26 -3 -33 -11z"/>
<path d="M13265 8224 c-93 -48 -198 -160 -253 -269 -72 -145 -101 -289 -181
-895 -32 -250 -32 -272 14 -445 14 -55 28 -129 31 -165 8 -96 14 -131 23 -125
14 8 23 -62 16 -119 -6 -45 -3 -62 19 -108 26 -54 26 -58 26 -290 0 -270 11
-357 65 -500 19 -51 39 -123 45 -160 15 -97 45 -186 81 -243 25 -39 34 -67 41
-130 5 -44 16 -107 24 -140 9 -33 20 -97 25 -142 5 -45 18 -128 29 -183 22
-110 25 -176 11 -230 -5 -19 -12 -65 -15 -102 l-5 -68 33 0 c26 0 41 -8 59
-30 67 -79 191 -62 218 29 11 36 10 43 -5 60 -23 25 -17 65 9 70 29 5 33 17
23 69 -5 29 -4 155 3 324 6 152 9 339 7 415 -4 122 -8 148 -36 228 -55 158
-89 378 -78 505 4 41 11 123 16 182 8 98 13 116 54 202 25 52 46 98 46 103 0
4 14 35 30 68 18 36 30 75 30 100 0 22 5 56 10 75 6 19 17 113 25 209 9 102
30 249 51 355 20 102 38 224 40 281 3 55 12 141 20 190 19 109 10 178 -37 272
-37 77 -132 207 -214 293 -34 36 -100 117 -147 180 -112 150 -116 154 -153
134z m39 -1439 c3 -8 26 -25 50 -37 40 -19 45 -25 39 -47 -16 -71 -75 -131
-163 -167 -82 -33 -97 -47 -114 -103 -15 -54 -32 -63 -47 -24 -10 26 -6 72 9
111 4 12 -5 8 -27 -10 -18 -16 -38 -28 -45 -28 -17 0 -36 21 -36 41 0 10 -6
19 -12 21 -22 8 8 55 52 83 31 20 40 32 38 48 -2 17 -11 23 -40 25 -20 2 -42
10 -49 19 -11 13 -10 18 10 34 20 16 35 18 129 13 93 -4 112 -2 147 15 50 24
52 24 59 6z"/>
<path d="M14532 5762 c-105 -38 -191 -119 -223 -209 -13 -38 -24 -21 141 -207
56 -64 101 -118 99 -120 -2 -2 -66 41 -142 96 l-138 101 -39 -38 c-81 -79
-120 -196 -101 -301 22 -116 90 -211 187 -258 63 -31 153 -50 194 -41 26 6 29
3 44 -41 33 -98 111 -155 191 -140 50 10 108 69 131 134 18 50 20 52 56 52 61
0 143 37 204 92 71 65 103 128 114 226 5 42 12 102 16 133 6 57 -15 161 -36
174 -5 3 -53 -8 -106 -25 -53 -17 -98 -29 -100 -27 -2 1 37 27 86 56 l90 53
-20 26 c-33 41 -91 79 -157 101 -34 12 -69 21 -78 21 -9 0 -18 7 -21 15 -9 22
-25 19 -176 -29 -76 -24 -136 -40 -133 -36 3 5 55 37 115 71 61 35 110 67 110
72 0 4 -26 20 -57 34 -76 35 -177 41 -251 15z"/>
<path d="M7250 5420 c-313 -67 -566 -264 -713 -555 -31 -62 -75 -190 -91 -267
l-6 -28 -2103 -2 -2102 -3 -37 -23 c-21 -13 -45 -40 -57 -66 l-21 -43 2 -1636
3 -1637 -50 0 c-138 -1 -217 -105 -202 -267 8 -86 42 -144 100 -172 l43 -21
3190 0 c3087 0 3190 1 3224 19 19 10 48 35 65 55 29 36 30 43 33 144 2 96 0
111 -20 147 -15 26 -41 50 -73 67 -45 25 -60 28 -147 28 l-98 0 0 1250 0 1250
44 55 c242 297 319 628 225 974 -40 150 -137 318 -253 440 -139 145 -337 252
-549 297 -96 20 -300 17 -407 -6z m370 -5 c125 -20 204 -47 321 -107 254 -131
435 -365 515 -663 26 -98 27 -380 0 -475 -59 -217 -140 -355 -293 -501 -181
-173 -398 -265 -653 -276 -152 -6 -269 11 -406 62 l-93 36 -51 -26 c-77 -39
-165 -58 -240 -52 -68 5 -210 52 -210 70 0 8 60 79 178 209 l25 27 -33 38
c-172 196 -264 501 -230 765 34 259 134 456 323 634 130 123 278 202 455 243
147 35 249 39 392 16z m-2430 -945 c34 -34 20 -80 -27 -95 -32 -9 -77 36 -68
68 15 47 61 61 95 27z m1245 -177 c11 -83 45 -211 76 -286 37 -88 66 -138 130
-223 49 -65 50 -67 32 -88 -10 -11 -60 -66 -111 -122 l-92 -101 92 -35 c51
-20 114 -39 140 -42 62 -9 156 8 245 45 l72 30 96 -36 c100 -37 248 -65 350
-65 136 0 335 49 462 114 29 14 55 26 58 26 3 0 5 -529 5 -1175 l0 -1175 -100
0 -100 0 0 25 0 26 -97 -3 c-93 -3 -98 -4 -101 -25 -3 -21 -9 -23 -63 -23 -56
0 -59 1 -59 25 l0 25 -100 0 -100 0 0 -25 c0 -24 -3 -25 -59 -25 -54 0 -60 2
-63 22 -3 22 -8 23 -100 26 l-98 3 0 -26 c0 -24 -2 -25 -65 -25 -47 0 -63 3
-60 13 12 30 -11 38 -106 35 -89 -3 -94 -4 -97 -25 -3 -21 -9 -23 -63 -23 -56
0 -59 1 -59 25 l0 25 -100 0 -100 0 0 -25 c0 -24 -3 -25 -59 -25 -54 0 -60 2
-63 23 -3 21 -8 22 -100 25 l-98 3 0 -26 c0 -24 -2 -25 -59 -25 -54 0 -60 2
-63 23 l-3 22 -745 0 -745 0 -3 -22 c-3 -21 -9 -23 -63 -23 -56 0 -59 1 -59
25 l0 25 -100 0 -100 0 0 -25 c0 -24 -3 -25 -60 -25 -57 0 -60 1 -60 25 l0 25
-100 0 -100 0 0 -25 c0 -24 -3 -25 -59 -25 -54 0 -60 2 -63 23 -3 21 -7 22
-103 22 -96 0 -100 -1 -103 -22 -3 -21 -9 -23 -63 -23 -57 0 -59 1 -59 25 l0
26 -97 -3 c-93 -3 -98 -4 -101 -25 -3 -21 -9 -23 -63 -23 -56 0 -59 1 -59 25
l0 25 -100 0 -100 0 0 -25 c0 -24 -3 -25 -59 -25 -54 0 -60 2 -63 23 -3 21 -7
22 -103 22 -96 0 -100 -1 -103 -23 -3 -20 -9 -22 -58 -22 l-54 0 0 1590 0
1590 2059 0 2060 0 6 -47z"/>
<path d="M6920 4575 l0 -25 335 0 335 0 0 25 0 25 -335 0 -335 0 0 -25z"/>
<path d="M6920 4360 l0 -30 590 0 590 0 0 30 0 30 -590 0 -590 0 0 -30z"/>
<path d="M6920 4135 l0 -25 585 0 585 0 0 25 0 25 -585 0 -585 0 0 -25z"/>
<path d="M5600 3961 c-14 -4 25 -5 85 -3 185 7 306 -38 431 -163 109 -108 164
-240 164 -395 0 -155 -55 -287 -164 -395 -115 -115 -237 -165 -397 -165 -159
0 -284 52 -393 163 -80 81 -126 159 -150 258 -68 278 74 555 342 665 31 13 50
24 42 24 -26 0 -137 -57 -194 -100 -57 -43 -121 -120 -156 -189 -15 -28 -30
-42 -50 -46 -86 -19 -157 -122 -148 -217 7 -71 52 -137 114 -168 45 -22 55
-33 90 -99 67 -131 204 -241 353 -285 70 -20 218 -21 295 -1 150 39 291 151
360 285 35 67 45 78 90 100 62 31 107 97 114 168 9 95 -62 198 -148 217 -23 5
-37 19 -61 66 -67 125 -211 236 -355 274 -60 15 -218 19 -264 6z"/>
<path d="M2997 3660 c-46 -14 -93 -56 -116 -103 -21 -43 -21 -47 -21 -1058 l0
-1015 23 -44 c13 -26 40 -57 65 -75 l44 -30 441 0 442 0 35 24 c51 36 64 51
83 99 15 38 17 95 17 548 l0 505 38 -3 c30 -2 38 -7 40 -27 4 -23 6 -23 73
-19 60 5 71 3 79 -13 15 -27 12 -36 -12 -36 -77 1 -88 -3 -88 -27 0 -12 -5
-37 -11 -55 -9 -24 -7 -56 7 -144 14 -84 19 -169 20 -342 0 -145 5 -240 12
-257 13 -32 37 -40 118 -41 96 -1 98 2 91 158 -3 71 -15 200 -27 285 -11 85
-20 160 -20 165 1 6 30 -48 66 -120 82 -160 184 -332 224 -375 34 -36 38 -36
140 14 37 18 66 39 68 49 3 17 -34 78 -301 500 -122 192 -125 199 -111 225 19
36 17 79 -5 187 -27 131 -34 145 -71 145 l-30 0 0 60 c0 65 -16 114 -46 145
-10 10 -23 32 -29 49 -13 41 -56 57 -84 32 -11 -10 -22 -28 -24 -40 -3 -15 -5
-12 -6 10 0 16 5 36 12 44 10 12 9 12 -5 1 -10 -7 -18 -26 -18 -42 0 -17 -14
-47 -34 -74 -19 -24 -37 -54 -41 -65 -3 -11 -11 -20 -16 -20 -6 0 -7 -4 -4
-10 3 -5 2 -10 -4 -10 -5 0 -19 -16 -32 -36 l-22 -36 -20 21 -21 21 21 27 c11
16 23 38 27 51 4 12 18 35 31 50 l23 28 -6 269 -7 270 -27 47 c-21 34 -41 53
-80 72 l-52 26 -410 -1 c-226 0 -424 -5 -439 -9z m1224 -770 l40 0 -7 -34 c-4
-24 -1 -43 11 -63 16 -28 16 -31 -10 -88 l-27 -60 -28 34 -29 35 -51 -12 c-29
-7 -65 -12 -81 -12 -24 0 -29 4 -29 25 0 18 5 25 20 25 11 0 20 7 20 15 0 8 5
15 10 15 6 0 10 -9 10 -20 0 -18 7 -20 56 -20 l57 0 -6 37 c-4 21 -12 40 -19
42 -20 7 -58 49 -58 66 0 8 7 15 15 15 8 0 15 6 15 13 0 9 3 8 9 -2 12 -18 31
-5 32 22 2 17 3 16 6 -5 4 -25 8 -28 44 -28z"/>
<path d="M5361 3516 c-33 -18 -50 -53 -51 -104 0 -37 6 -50 34 -78 l34 -34
334 0 c355 0 357 0 395 50 33 43 19 127 -26 160 -28 19 -42 20 -363 20 -257
-1 -338 -4 -357 -14z"/>
<path d="M5585 2685 c-22 -8 -29 -12 -15 -9 14 3 68 8 120 11 113 7 188 -9
300 -64 90 -44 200 -149 245 -235 16 -31 31 -55 33 -53 10 10 -72 136 -120
184 -121 122 -239 172 -413 177 -79 3 -121 -1 -150 -11z"/>
<path d="M5480 2650 c-8 -5 -10 -10 -5 -10 6 0 17 5 25 10 8 5 11 10 5 10 -5
0 -17 -5 -25 -10z"/>
<path d="M5420 2622 c-52 -25 -170 -142 -208 -205 -38 -63 -82 -180 -81 -217
0 -14 8 5 18 41 38 147 134 282 252 355 32 20 59 38 59 40 0 6 -2 5 -40 -14z"/>
<path d="M5400 2380 c-25 -25 -26 -72 -2 -93 16 -14 44 -17 179 -17 178 0 193
5 193 68 0 55 -24 62 -197 62 -140 0 -155 -2 -173 -20z m89 -34 c6 -7 9 -20 5
-29 -15 -39 -72 -19 -60 21 8 25 38 29 55 8z m117 -8 c12 -40 -45 -60 -60 -21
-4 9 -1 22 5 29 17 21 47 17 55 -8z"/>
<path d="M6284 2275 c12 -47 26 -142 27 -184 2 -35 3 -39 7 -16 5 37 -16 186
-29 206 -8 11 -9 10 -5 -6z"/>
<path d="M5121 2114 c0 -27 4 -67 9 -89 6 -28 6 -14 3 45 -6 95 -13 120 -12
44z"/>
<path d="M6293 1981 c-31 -164 -156 -325 -308 -395 -115 -54 -191 -69 -305
-63 -192 10 -369 117 -464 280 -32 54 -45 63 -20 15 28 -56 93 -135 139 -170
40 -29 44 -37 45 -74 0 -79 77 -154 156 -154 58 0 91 14 132 57 l34 37 27 -31
c90 -107 266 -66 287 66 5 31 17 46 76 92 107 83 198 234 215 354 8 65 -1 55
-14 -14z"/>
<path d="M5141 1969 c-1 -18 30 -112 35 -107 2 2 -5 31 -16 63 -10 33 -19 53
-19 44z"/>
<path d="M2410 1649 c0 -5 5 -7 10 -4 6 3 10 8 10 11 0 2 -4 4 -10 4 -5 0 -10
-5 -10 -11z"/>
<path d="M2490 1605 c13 -14 26 -25 28 -25 3 0 -5 11 -18 25 -13 14 -26 25
-28 25 -3 0 5 -11 18 -25z"/>
<path d="M4866 1595 c-5 -13 -10 -14 -27 -5 -28 15 -34 7 -23 -32 9 -29 17
-35 89 -60 88 -31 105 -30 105 4 -1 60 -126 140 -144 93z"/>
<path d="M2411 1573 c-1 -8 -17 -13 -46 -13 -25 0 -45 -5 -45 -10 0 -6 21 -32
48 -59 42 -43 54 -50 111 -60 69 -11 79 -10 63 11 -47 57 -87 98 -102 103 -10
3 -21 14 -23 23 -3 9 -5 11 -6 5z"/>
<path d="M4235 1416 c-33 -85 1 -123 64 -71 49 42 38 115 -19 115 -24 0 -31
-6 -45 -44z"/>
<path d="M995 4839 c-27 -5 -86 -11 -130 -14 -143 -9 -194 -59 -280 -275 -42
-106 -57 -132 -100 -175 -27 -27 -59 -55 -69 -60 -18 -10 -18 -12 -2 -28 19
-19 67 -22 96 -7 10 5 41 37 69 71 l51 61 0 -65 c0 -86 11 -112 52 -126 48
-17 205 -41 263 -40 l50 0 -48 13 c-100 27 -177 128 -177 232 0 59 6 65 74 82
51 13 102 43 124 74 13 17 16 16 42 -21 52 -71 124 -111 201 -111 l39 0 0 -42
c-1 -90 -68 -177 -162 -209 l-53 -18 50 -1 c104 0 330 49 352 77 16 20 8 39
-41 98 -50 61 -86 129 -86 165 0 15 7 60 16 99 19 86 14 115 -32 158 -56 52
-193 81 -299 62z"/>
<path d="M915 4050 c-49 -4 -91 -16 -140 -39 -38 -18 -89 -42 -112 -53 -54
-26 -63 -47 -103 -232 -40 -189 -45 -183 123 -192 l117 -7 -5 -31 c-36 -206
-115 -788 -110 -811 16 -80 16 -94 0 -129 -19 -39 -59 -66 -98 -66 -28 0 -31
-8 -77 -300 -68 -425 -223 -1691 -209 -1704 11 -11 264 -25 334 -19 69 5 77 8
99 38 72 95 194 714 267 1368 7 59 15 107 19 107 3 0 11 -60 18 -132 37 -429
123 -1317 128 -1336 11 -37 53 -52 152 -52 75 0 208 16 301 36 l23 5 -6 142
c-21 443 -71 1048 -171 2072 -11 104 -30 218 -56 325 -51 218 -62 325 -43 421
16 80 24 92 127 224 94 120 93 122 -53 202 -63 35 -124 74 -135 87 -11 13 -48
38 -82 55 -57 28 -70 31 -150 29 -48 -1 -119 -4 -158 -8z"/>
<path d="M340 125 l0 -85 225 0 c251 0 242 -3 206 68 -43 85 -88 101 -283 102
l-148 0 0 -85z"/>
<path d="M1309 201 c-1 -6 -1 -18 -1 -26 0 -8 0 -42 1 -75 l1 -60 226 0 226 0
-7 28 c-11 45 -44 90 -83 114 -34 21 -51 23 -199 26 -112 3 -163 0 -164 -7z"/>
</g>
</svg>
