<?xml version="1.0" encoding="UTF-8"?>
<svg width="2000px" height="1600px" viewBox="0 0 2000 1600" version="1.1" xmlns="http://www.w3.org/2000/svg" xmlns:xlink="http://www.w3.org/1999/xlink">
    <title>Custom Preset 12</title>
    <g id="Custom-Preset-12" stroke="none" stroke-width="1" fill="none" fill-rule="evenodd">
        <rect fill="#FFFFFF" x="0" y="0" width="2000" height="1600"></rect>
        <g id="undraw_career_progress_ivdb" transform="translate(1067.000000, 449.000000)" fill-rule="nonzero">
            <rect id="Rectangle" fill="#8C56F8" opacity="0.1" x="152" y="301" width="129" height="38" rx="7.43"></rect>
            <rect id="Rectangle" fill="#8C56F8" opacity="0.1" x="287" y="340" width="129" height="38" rx="7.43"></rect>
            <rect id="Rectangle" fill="#8C56F8" opacity="0.1" x="421" y="379" width="129" height="38" rx="7.43"></rect>
            <rect id="Rectangle" fill="#8C56F8" opacity="0.1" x="152" y="243" width="129" height="38" rx="7.43"></rect>
            <rect id="Rectangle" fill="#8C56F8" opacity="0.1" x="287" y="281" width="129" height="38" rx="7.43"></rect>
            <rect id="Rectangle" fill="#8C56F8" opacity="0.1" x="421" y="320" width="129" height="38" rx="7.43"></rect>
            <rect id="Rectangle" fill="#8C56F8" opacity="0.1" x="572" y="301" width="129" height="38" rx="7.43"></rect>
            <rect id="Rectangle" fill="#8C56F8" opacity="0.1" x="706" y="340" width="129" height="38" rx="7.43"></rect>
            <rect id="Rectangle" fill="#8C56F8" opacity="0.1" x="842" y="379" width="129" height="38" rx="7.43"></rect>
            <rect id="Rectangle" fill="#8C56F8" opacity="0.1" x="572" y="243" width="129" height="38" rx="7.43"></rect>
            <rect id="Rectangle" fill="#8C56F8" opacity="0.1" x="706" y="281" width="129" height="38" rx="7.43"></rect>
            <rect id="Rectangle" fill="#8C56F8" opacity="0.1" x="842" y="320" width="129" height="38" rx="7.43"></rect>
            <rect id="Rectangle" fill="#8C56F8" opacity="0.1" x="152" y="164" width="129" height="38" rx="7.43"></rect>
            <rect id="Rectangle" fill="#8C56F8" opacity="0.1" x="287" y="204" width="129" height="38" rx="7.43"></rect>
            <rect id="Rectangle" fill="#8C56F8" opacity="0.1" x="421" y="243" width="129" height="38" rx="7.43"></rect>
            <rect id="Rectangle" fill="#8C56F8" opacity="0.1" x="152" y="106" width="129" height="38" rx="7.43"></rect>
            <rect id="Rectangle" fill="#8C56F8" opacity="0.1" x="287" y="144" width="129" height="38" rx="7.43"></rect>
            <rect id="Rectangle" fill="#8C56F8" opacity="0.1" x="421" y="183" width="129" height="38" rx="7.43"></rect>
            <rect id="Rectangle" fill="#8C56F8" opacity="0.1" x="572" y="164" width="129" height="38" rx="7.43"></rect>
            <rect id="Rectangle" fill="#8C56F8" opacity="0.1" x="706" y="204" width="129" height="38" rx="7.43"></rect>
            <rect id="Rectangle" fill="#8C56F8" opacity="0.1" x="842" y="243" width="129" height="38" rx="7.43"></rect>
            <rect id="Rectangle" fill="#8C56F8" opacity="0.1" x="572" y="106" width="129" height="38" rx="7.43"></rect>
            <rect id="Rectangle" fill="#8C56F8" opacity="0.1" x="706" y="144" width="129" height="38" rx="7.43"></rect>
            <rect id="Rectangle" fill="#8C56F8" opacity="0.1" x="842" y="183" width="129" height="38" rx="7.43"></rect>
            <ellipse id="Oval" fill="#8C56F8" opacity="0.1" cx="539" cy="650.5" rx="539" ry="98.5"></ellipse>
            <polygon id="Path" fill="#3F3D56" points="236.336538 315.492035 191 593 396 571.350442 387.129808 547.732743 226.973558 561.017699 264.425481 315"></polygon>
            <polygon id="Path" fill="#3F3D56" points="184 0.984639017 460.121884 0 540 603.583717 262.891967 641"></polygon>
            <polygon id="Path" fill="#FFFFFF" points="214 24 436.295082 24 514 586.425249 284.819672 618"></polygon>
            <path d="M423.9657,561.391592 C425.354397,564.03416 426.39103,566.890466 428.200248,569.270721 C433.481209,576.285186 443.505254,577.383018 451.025733,581.958936 C451.402023,582.148738 451.712114,582.446636 451.915672,582.813885 C452.257957,583.620257 451.495151,584.46549 450.761685,584.970687 C445.060203,588.944255 437.578843,589.031693 430.606019,588.983116 C428.262689,589.065931 425.918523,588.843832 423.633196,588.322474 C419.946303,587.350942 416.787506,584.795811 413.149511,583.756271 C411.263109,583.288202 409.332499,583.017933 407.389352,582.949899 L399.751519,582.434987 C397.718105,582.40582 395.70436,582.034624 393.795769,581.337155 C391.862713,580.602373 390.4447,578.933211 390.04042,576.916682 C389.825269,575.303938 390.519618,573.739771 390.930359,572.165888 C391.908315,568.435203 391.605149,563.927292 394.529236,561.381876 C395.734147,560.465385 397.115434,559.804077 398.587752,559.438811 C403.903019,557.659385 409.329066,556.224971 414.831595,555.144637 C419.359529,554.260543 421.960891,557.563753 423.9657,561.391592 Z" id="Path" fill="#3F3D56"></path>
            <path d="M334.898486,581.479324 C335.095426,583.566917 335.154508,585.958338 333.638072,587.418674 C332.693865,588.199126 331.553088,588.707532 330.339332,588.888809 C323.062409,590.574565 314.948492,590.692176 308.61688,586.752212 C307.958087,586.377692 307.376677,585.882148 306.903505,585.291877 C306.375569,584.487762 306.076137,583.556417 306.03697,582.596628 C305.810489,579.822971 306.667177,577.088518 307.445089,574.412871 C309.285858,568.064126 310.684171,561.596494 311.630058,555.056081 C311.708834,554.517031 330.211321,557.996353 331.442194,559.819321 C332.988171,562.07353 332.998018,567.48363 333.411591,570.169078 C334.035234,573.919558 334.530865,577.68964 334.898486,581.479324 Z" id="Path" fill="#3F3D56"></path>
            <path d="M405.998628,324.927762 L410.967998,370.769746 C411.961872,380.137328 413.00544,389.554212 412.319667,398.951375 C411.524568,409.798048 408.463435,420.644721 409.755472,431.392788 C410.262348,435.573687 411.415241,439.675702 411.5842,443.886183 C411.615716,446.686086 411.472989,449.48525 411.156834,452.267703 C408.910679,480.084489 416.016878,507.684342 419.992374,535.303915 C420.631676,538.710717 420.772266,542.191204 420.409802,545.637837 C419.892987,549.138354 418.859358,553.733399 422,555.389982 L392.501818,566 C388.735036,561.316209 391.22966,554.029217 390.51407,548.083268 C389.858113,542.728956 386.896369,537.95642 385.316109,532.79932 C383.88493,528.164832 383.586768,523.28383 383.119647,518.471851 C380.545514,492.272205 372.644215,466.752942 370.795609,440.494133 C370.736208,437.958223 370.403013,435.435934 369.801735,432.970486 C368.807861,429.706623 366.820113,426.856906 365.369057,423.790256 C363.142779,419.18535 362.049518,414.136717 360.976134,409.147248 L354.665033,379.811927 C348.284362,389.238672 348.542769,401.505273 347.280549,412.805535 C345.511453,428.582514 341.555835,444.093256 338.335683,459.673023 C337.587576,463.025202 337.026838,466.415853 336.656036,469.829453 C335.821181,478.97024 337.480951,488.199773 336.596403,497.330699 C335.602529,507.911136 331.120157,518.235196 332.20348,528.815633 C332.799804,534.672836 335.065837,540.2145 336.596403,545.894212 C338.126969,551.573925 338.882314,557.805832 336.54671,563.219307 C328.383657,560.245798 319.614598,559.284757 310.994208,560.418894 C301.522588,550.804797 299.842941,537.394365 299.196923,523.93463 C298.550905,510.474895 300.111287,496.995438 298.421701,483.663891 C297.924764,479.719646 297.149542,475.874008 297.020339,471.939624 C296.602912,459.327901 302.715237,447.524749 305.756492,435.268008 C308.493378,424.234301 308.754625,412.738901 306.521775,401.594019 C305.030964,394.228142 302.466769,387.079198 301.552404,379.614715 C300.310062,369.152606 302.417075,358.611612 304.534027,348.277691 C305.955266,341.306238 307.366568,334.334786 308.976644,327.402776 C310.705984,319.958014 312.763304,312.355482 317.384818,306.261624 C324.779241,296.509479 337.908317,292.18067 350.182661,293.127289 C362.457006,294.073908 373.916374,299.615571 384.053889,306.518 C392.043727,311.81577 399.405249,317.991458 405.998628,324.927762 Z" id="Path" fill="#192534"></path>
            <path d="M371.793707,149.973567 C371.244082,150.875705 370.862025,151.873686 370.666709,152.917427 C370.42171,154.970119 371.646707,156.852587 372.626705,158.644937 C373.88229,160.947704 374.847112,163.40381 375.498098,165.954522 C375.964578,167.533219 376.108021,169.193127 375.919497,170.830916 C375.680357,172.061026 375.250263,173.244157 374.6455,174.335511 C372.754105,178.060395 369.951311,181.504912 366.13912,183.056947 C363.186879,184.167676 359.967368,184.300798 356.93694,183.437446 C353.92682,182.566805 351.081182,181.185812 348.51876,179.352089 C346.359035,177.953591 344.416661,176.232236 342.756373,174.245393 C341.171167,172.072802 339.836108,169.720912 338.777582,167.236202 C336.739186,162.880491 334.671391,158.224386 335.04379,153.448123 C335.063226,153.015037 335.142407,152.586923 335.27899,152.176456 C335.597219,151.434735 336.041857,150.756662 336.592187,150.17383 C340.773311,145.11142 342.916997,138.615644 342.589773,132 L356.868341,135.314346 C360.014133,136.045304 363.159926,136.776263 366.266519,137.687458 C368.814513,138.438442 372.734505,139.479808 374.390701,141.802854 C376.046897,144.1259 372.920704,147.850784 371.793707,149.973567 Z" id="Path" fill="#FBBEBE"></path>
            <circle id="Oval" fill="#FBBEBE" cx="364" cy="122" r="26"></circle>
            <path d="M361.344978,173.27627 C362.447567,170.862657 364.829947,169.335677 367.005591,167.818549 C369.181235,166.30142 371.386413,164.360678 371.809729,161.730332 C371.835727,161.135356 371.983139,160.552 372.242889,160.016174 C373.079675,158.755185 375.068273,159.38568 376.259463,160.311719 C379.153759,162.567708 381.122668,165.76944 383.042354,168.89236 C385.525767,172.690067 387.651467,176.710306 389.392086,180.901318 C392.158403,188.201267 392.493117,196.171116 392.798298,203.963639 C393.073945,211.056707 393.339748,218.258141 391.616953,225.134476 C390.534053,229.488831 388.663589,233.715117 388.555299,238.197542 C388.230429,254.482043 382.579661,270.047386 382.185879,286.331887 C382.156332,291.04066 382.392979,295.747335 382.894686,300.429359 L383.820073,311 C369.506105,310.179043 355.231515,308.921337 340.996304,307.226882 C340.582833,302.36025 339.194752,297.641389 337.924806,292.932381 C332.724736,273.680494 329.391703,253.971719 327.971971,234.079622 C327.213941,223.518833 326.436222,212.997449 325.264721,202.476065 C324.211355,192.910276 322.144001,183.285377 323.384413,173.73929 C324.033593,169.400264 325.397526,165.199052 327.420677,161.306719 C328.060176,159.756044 329.159745,158.439069 330.570931,157.533601 C331.275984,157.192654 332.024661,156.950654 332.795798,156.814443 C335.027628,156.361998 337.293036,156.095098 339.568845,156.016472 C340.125123,155.969591 340.685294,156.022978 341.222728,156.174096 C342.181894,156.652588 342.969438,157.416596 343.477129,158.361125 C347.86334,164.960105 354.070844,170.141805 361.344978,173.27627 Z" id="Path" fill="#F2F2F2"></path>
            <path d="M350,171.048284 C351.798881,173.675373 355.609414,174.297579 357.272895,176.97405 C357.833287,178.09268 358.258713,179.276607 358.539849,180.49988 C359.555346,183.808433 361.605684,186.68243 362.853295,189.911972 C364.652176,194.553822 364.700533,199.689486 364.719875,204.677006 C364.896723,208.649773 364.597922,212.629729 363.830106,216.528538 C363.249822,218.967978 362.302025,221.288903 361.605684,223.698715 C360.423063,227.796765 359.983858,232.081034 360.309716,236.340349 C360.309868,237.260454 360.550236,238.163883 361.006057,238.957562 C361.662013,239.750724 362.518336,240.345086 363.481936,240.676034 C366.315657,241.950074 369.284778,243.253742 372.379627,242.957454 C373.014464,242.937032 373.629624,242.727634 374.149493,242.355001 C374.508075,242.021361 374.803175,241.622908 375.01992,241.179724 L376.9542,237.841543 C378.704724,234.789773 380.532619,231.372581 379.855621,227.886256 C379.363956,226.086788 378.624789,224.367648 377.660213,222.780221 C376.424092,220.203856 375.370432,217.540311 374.507335,214.810065 C371.422158,205.75352 368.298295,196.568582 367.601954,187.008347 C367.192433,183.369993 367.589067,179.684168 368.762522,176.223453 C369.670908,174.093549 370.812989,172.075762 372.166856,170.2088 C371.539943,169.349688 370.457991,168.976155 369.449192,169.270554 C368.476313,169.577521 367.534002,169.977641 366.634813,170.465583 C363.791421,171.690242 360.638543,171.245809 357.766137,170.406326 C356.644254,170.070532 354.864716,168.924884 353.704147,169.003894 C353.30762,169.053276 350.0677,171.166799 350,171.048284 Z" id="Path" fill="#8C56F8"></path>
            <path d="M371.534972,173.383442 C370.962,172.902397 370.073895,172.461438 369.56777,173.022658 C369.397767,173.265974 369.274514,173.541688 369.204888,173.834423 C368.708313,175.237473 367.247235,175.928976 365.919851,176.470153 C364.592468,177.011329 363.160039,177.311983 362.357879,176.279739 C361.838304,175.454971 361.888556,174.371816 362.482023,173.603922 C363.06942,172.861234 363.77746,172.233539 364.573369,171.749891 C368.965964,168.496054 371.958248,163.55518 372.900554,158 C374.132351,159.02745 374.94779,160.506243 375.18289,162.138998 C375.498025,163.732462 375.536223,165.376035 375.851357,166.969499 C376.319284,169.254466 377.360182,171.389107 377.59892,173.704139 C377.723064,174.936819 377.59892,176.179521 377.59892,177.4122 C377.641822,178.617397 377.775938,179.817108 378,181 C375.765411,178.514597 374.18974,175.598257 371.534972,173.383442 Z" id="Path" fill="#F2F2F2"></path>
            <path d="M351.433091,166.512813 C350.430291,165.54489 349.427491,164.627909 348.424691,163.639608 C344.024305,159.275795 340.701591,153.916865 338.727616,148 C337.444032,149.018867 336.030084,150.363771 336,152.075468 C336.114344,153.286682 336.574416,154.437585 337.323696,155.386786 C341.115803,161.454417 343.619385,168.259581 344.674219,175.366768 C345.775985,173.618026 347.695278,172.57929 349.738359,172.626015 C351.322783,172.626015 358.432634,176.905257 358.944062,175.825258 C359.696162,174.133939 352.636451,167.664133 351.433091,166.512813 Z" id="Path" fill="#F2F2F2"></path>
            <path d="M373.949016,157.022828 C383.237306,166.263574 394.607643,173.143304 407.106097,177.084831 C408.348602,177.355611 409.500994,177.939958 410.453402,178.782158 C411.164868,179.670257 411.643398,180.721718 411.845644,181.841292 C414.254914,191.255533 415.064586,200.995423 415.864385,210.676105 C416.073807,212.277166 416.040519,213.900632 415.765644,215.491775 C415.183075,218.077237 413.346501,220.169291 411.539548,222.113322 C405.87184,228.18225 399.404333,234.527488 398.44655,242.777284 C398.373486,244.367691 398.185388,245.950731 397.883728,247.514009 C397.390026,249.34949 396.294005,250.967871 395.62257,252.754011 C392.324635,261.546556 399.779547,272.194319 395.237481,280.384906 C397.696213,285.105936 399.382973,290.189857 400.233754,295.443743 C400.386145,297.435502 400.84233,299.392271 401.5865,301.246231 C402.939245,304.06853 405.723729,305.864538 407.91577,308.153955 C414.600506,315.00247 415.420052,325.482473 415.815015,335.044737 C416.061866,340.432761 415.982874,346.620108 411.865392,350.152915 C409.485745,352.215364 406.23718,352.8864 403.126852,353.399546 C398.989623,354.090318 394.487053,354.583727 390.823778,352.541014 C388.197279,351.080524 386.410075,348.524666 384.701863,346.057622 C381.463173,341.350502 378.214608,336.65325 375.143777,331.827711 C370.285741,324.219347 365.704179,315.525483 367.106295,306.604651 C366.711333,315.732715 364.785892,324.929856 360.30307,332.883606 C355.820249,340.837356 348.602313,347.478639 339.844026,350.103574 C331.085738,352.728509 320.846341,350.873292 314.31959,344.478714 C312.188927,342.286474 310.359363,339.820854 308.878985,337.146658 C305.163769,330.788136 302.452701,323.894672 300.841503,316.709664 C300.416919,314.844579 300.100949,312.762394 301.038984,311.094672 C301.483317,310.305218 302.164627,309.683522 302.628707,308.903936 C304.188808,306.249397 302.687952,302.904085 301.177221,300.200205 C298.876566,300.417304 297.227599,297.713424 297.434954,295.404271 C297.642309,293.095117 299.024677,291.091877 300.002208,288.989956 C302.865685,282.792741 302.233745,275.579103 300.851377,268.898348 C299.469009,262.217592 297.405332,255.576309 297.563316,248.757399 C297.731175,241.543762 292.537422,235.050501 288.577925,229.021045 C286.366137,225.626393 283.789008,222.468576 281.863567,218.906164 C277.849199,211.409451 276.921008,202.642909 279.276564,194.472559 C280.659238,190.277166 282.472554,186.236012 284.687547,182.413647 L287.945986,176.305245 C289.17639,173.345181 291.742663,171.146829 294.857825,170.384339 L317.400296,161.50298 C320.282734,160.519017 323.019415,159.151491 325.536518,157.437291 C328.29138,155.364974 330.345183,152.503203 332.971682,150.292731 C333.74482,149.481035 334.812671,149.015018 335.933899,149 C338.046947,149.187495 338.797376,151.851903 339.014605,153.934088 C339.508308,158.591868 342.964227,162.539139 344.13924,167.068632 C350.498132,192.08446 363.956471,215.156257 367.649368,240.695099 C371.796472,230.738108 375.943575,220.761381 381.255818,211.386614 C382.093812,210.040729 382.798216,208.616233 383.358992,207.133429 C383.996654,204.994585 384.234312,202.756581 384.06005,200.531619 C383.79345,194.107436 382.085238,187.831276 380.396775,181.624192 C378.204734,173.177033 376.229923,165.391042 373.949016,157.022828 Z" id="Path" fill="#3F3D56"></path>
            <path d="M417.74162,233.740354 C418.172179,237.915776 418.592952,242.101 419.366,246.227415 C420.266259,251.000727 421.636217,255.666222 422.996391,260.331718 C423.660648,262.954266 424.612354,265.495213 425.834162,267.908247 C426.277112,268.608747 426.62897,269.363022 426.881202,270.152781 C427.360688,272.113074 426.264721,274.073366 425.795021,276.033658 C424.38592,281.914535 428.613221,288.452109 425.951587,293.872317 C425.149183,295.518962 423.749868,296.881365 423.221455,298.645628 C422.604974,300.674531 423.221455,302.840654 423.544374,304.938166 C424.376135,310.819043 422.370124,316.797934 420.393469,322.453377 L417.027285,332 C413.954663,326.275947 410.852685,320.493085 406.605813,315.582553 C405.089073,313.81829 403.435337,312.181446 402.036022,310.319168 C399.949557,307.392672 398.301239,304.176486 397.143313,300.772545 C394.155907,292.684783 392.448952,284.179006 392.084251,275.563188 C391.841405,273.113742 392.125017,270.640606 392.916011,268.310107 C393.563633,266.962164 394.288979,265.653092 395.088375,264.389522 C397.710867,259.655417 398.249065,254.048981 398.200138,248.638575 C398.151211,243.228168 397.573871,237.798159 398.200138,232.417157 C398.711143,227.924341 400.037661,223.562907 402.114306,219.547839 C403.339255,216.947841 405.159809,214.674295 407.427788,212.912249 C409.120352,211.64301 411.184904,210.970931 413.29904,211 C416.498872,211.187192 415.764966,213.941403 416.038958,216.597599 L417.74162,233.740354 Z" id="Path" fill="#3F3D56"></path>
            <path d="M271.783694,221.668501 C269.763608,227.555722 267.94157,233.495275 266.317579,239.487158 C264.733198,245.37438 263.317157,251.294308 262.069457,257.246943 C261.428569,259.864244 261.070072,262.541596 261,265.233941 C261.126695,268.368509 261.669389,271.4729 262.614088,274.467067 C268.991223,297.240802 280.616619,318.248371 293.707569,338 C297.448303,333.37728 301.891383,329.358718 306.877737,326.088188 C307.28577,325.848752 307.626334,325.511295 307.867975,325.106985 C308.122176,324.333893 308.00544,323.488049 307.551099,322.810968 C303.93673,315.471565 298.213153,309.005433 296.410919,301.028248 C295.658338,297.71178 295.628631,294.257943 294.777026,290.961099 C293.677862,286.692863 291.222071,282.787673 290.657635,278.411505 C290.05359,273.642856 291.647873,268.442476 289.39013,264.213489 C293.994738,262.43751 296.658479,257.737545 298.609248,253.233821 C300.693651,248.62627 302.184134,243.776945 303.045515,238.800315 C304.401451,229.259419 302.516836,219.542618 297.688326,211.179434 C295.329933,207.007624 292.303301,203.243111 288.72667,200.032961 C287.548287,198.983073 284.765718,195.970778 283.052605,196 C280.765155,196.049274 280.032379,199.718976 279.378822,201.367398 C276.734885,208.098455 274.120657,214.839323 271.783694,221.668501 Z" id="Path" fill="#3F3D56"></path>
            <path d="M312.421616,330.70394 C312.725038,330.929497 313.068917,331.237073 312.988004,331.606165 C312.907091,331.975257 312.613783,332.06753 312.350817,332.221318 C310.983517,333.204597 309.962729,334.605839 309.437963,336.219815 C307.757237,340.059666 306.291734,343.992654 305.048453,348 C302.785127,344.562609 300.122939,341.41305 297.119017,338.618913 C294.813007,336.465876 292.233917,334.425618 291,331.513892 C291,331.431872 296.299776,327.464133 296.785252,327.033526 C298.272022,325.690441 300.143126,321.968764 301.680466,321.148559 C303.420087,320.225829 305.078796,323.844981 306.40374,325.300844 C308.226439,327.30131 310.242489,329.111402 312.421616,330.70394 Z" id="Path" fill="#FBBEBE"></path>
            <path d="M392.595321,117.565442 C392.525962,116.282588 392.357517,114.862634 391.366667,114.030248 C390.496979,113.435626 389.449375,113.149174 388.394119,113.217447 C382.617465,113.031385 376.642642,113.991077 371.192969,112.071692 C367.606094,110.808423 364.544369,108.379814 361.046669,106.871726 C357.54897,105.363638 353.07033,104.962134 350.246409,107.498464 C348.106174,109.45702 347.521572,112.463403 346.778435,115.23476 C345.142295,121.351398 342.229568,127.06212 338.227403,132 C335.542201,131.177406 333.619952,128.807554 332.38139,126.320187 C328.170279,117.83964 330.241155,107.713905 333.233521,98.7241324 C334.224371,95.7079561 335.324214,92.7211581 336.424057,89.7441529 L338.84173,83.1634045 C342.014956,82.8554052 344.962991,81.4055724 347.125232,79.0896079 L348.165625,81.5867669 C350.852608,81.4912374 353.445736,80.585699 355.596997,78.9916801 C356.42931,80.5389394 358.569545,80.9502362 360.303532,80.4508044 C362.037519,79.9513726 363.533702,78.9916801 365.25778,78.4922483 C369.865231,77.0233312 374.779845,79.2854635 379.615191,79.5400758 C381.661361,79.4908458 383.708732,79.5496864 385.74855,79.7163458 C391.455844,80.6270744 395.488602,85.9347613 397.232497,91.3795472 C398.391791,95.0028759 399.352915,99.458591 402.969516,100.741445 C403.048784,102.112434 400.591477,102.37684 400.383399,103.679279 C400.358916,104.113509 400.462157,104.545459 400.680654,104.922962 L404,111.963971 C402.413246,112.35766 400.74385,112.275847 399.204288,111.728945 C397.708105,115.205382 392.743948,120.219285 392.595321,117.565442 Z" id="Path" fill="#192534"></path>
            <path d="M559.965662,133.077176 C561.63097,138.504693 562.941886,144.036501 563.889979,149.637027 C564.596356,153.833905 565.008409,158.496003 562.624387,162 C571.70918,148.211672 581.196216,134.007616 595,125.109047 C589.315245,118.890275 586.515702,110.52828 587.298528,102.105405 C587.377015,101.273948 575.967064,105.619301 575.093903,106.114215 C571.0911,108.361129 567.421864,111.152449 563.517169,113.557735 C561.496146,114.795022 553.078486,117.724918 553,119.496713 C553,120.635017 556.34548,124.119218 556.973371,125.316911 C558.205313,127.805278 559.206992,130.40305 559.965662,133.077176 L559.965662,133.077176 Z" id="Path" fill="#FBBEBE"></path>
            <path d="M602.530745,649.56873 C597.91942,646.320026 591.897946,645.863741 586.849951,648.380499 C582.365482,650.69755 579.346137,655.084105 575.267547,658.054684 C568.258708,663.144276 559.002684,663.550255 550.796006,666.302992 C548.618118,667.035735 546.301637,668.124947 545.380985,670.263764 C544.757327,672.080486 544.903982,674.073339 545.786864,675.779139 C547.158757,678.837736 549.562815,681.315998 552.577915,682.779804 C556.260525,684.542347 560.497507,684.621562 564.576097,684.671072 L600.016274,685.086953 C610.905714,685.215678 621.86445,685.344403 632.684593,686.700968 C635.208964,687.01783 637.941223,687.364397 640.168608,686.126656 C643.791822,684.14627 644.207601,679.135893 643.930415,675.006788 C643.200783,664.545068 640.863464,654.25833 637.000771,644.508844 C636.575093,643.429534 636.010822,642.201694 634.812984,642.003656 C633.962992,641.965134 633.12727,642.23207 632.456905,642.756202 C622.45842,648.69736 609.796971,652.054115 599.164918,647.301188" id="Path" fill="#FFFFFF"></path>
            <path d="M620.616141,425.301797 C616.728899,448.309445 619.265324,471.950966 623.638472,494.859571 C624.443621,499.420897 625.504635,503.931441 626.816292,508.369012 C628.380907,513.420196 630.489736,518.273295 631.95717,523.354192 C635.688923,536.229759 635.164145,549.996711 634.610213,563.436822 L632.064069,624.595765 C631.850271,629.726183 631.655909,634.975453 633.171933,639.868168 C633.784174,641.849025 634.532468,644.325095 632.987289,645.662174 C632.382706,646.104585 631.676525,646.380872 630.936769,646.46442 C623.98302,647.770277 616.800529,646.672264 610.528748,643.344571 L609.838762,581.561659 C609.624964,562.515724 609.401447,543.390555 606.524888,524.582323 C604.241133,509.626856 600.276146,494.869476 600.013757,479.735732 C599.74165,463.888881 603.551148,448.250019 607.43839,432.888477 C608.274147,429.600255 611.325632,427.193515 613.832903,424.965051 C614.707912,424.085679 615.773001,423.427598 616.942697,423.043621 C618.10887,422.716779 619.897001,424.301464 620.616141,425.301797 Z" id="Path" fill="#3F3D56"></path>
            <path d="M620.616141,425.301797 C616.728899,448.309445 619.265324,471.950966 623.638472,494.859571 C624.443621,499.420897 625.504635,503.931441 626.816292,508.369012 C628.380907,513.420196 630.489736,518.273295 631.95717,523.354192 C635.688923,536.229759 635.164145,549.996711 634.610213,563.436822 L632.064069,624.595765 C631.850271,629.726183 631.655909,634.975453 633.171933,639.868168 C633.784174,641.849025 634.532468,644.325095 632.987289,645.662174 C632.382706,646.104585 631.676525,646.380872 630.936769,646.46442 C623.98302,647.770277 616.800529,646.672264 610.528748,643.344571 L609.838762,581.561659 C609.624964,562.515724 609.401447,543.390555 606.524888,524.582323 C604.241133,509.626856 600.276146,494.869476 600.013757,479.735732 C599.74165,463.888881 603.551148,448.250019 607.43839,432.888477 C608.274147,429.600255 611.325632,427.193515 613.832903,424.965051 C614.707912,424.085679 615.773001,423.427598 616.942697,423.043621 C618.10887,422.716779 619.897001,424.301464 620.616141,425.301797 Z" id="Path" fill="#000000" opacity="0.1"></path>
            <path d="M546.392917,352.633643 C544.935306,358.643066 548.027806,364.869579 547.6831,371.046753 C547.486126,374.786608 546.018666,378.516595 546.698228,382.187376 C547.37779,385.858157 549.99755,388.621111 551.396069,391.985993 C552.415981,394.796137 552.955382,397.758548 552.991563,400.748502 C553.39536,408.129535 553.070352,415.550038 552.794588,422.901468 C552.331698,435.236081 551.986993,447.639768 553.612032,459.865837 C555.027093,470.457877 557.90072,480.802267 562.150876,490.603693 C563.439093,493.269967 564.503159,496.039226 565.332014,498.882686 C565.876209,501.532118 566.23818,504.215863 566.415374,506.914986 C567.351471,515.693289 569.703046,524.261241 573.378422,532.284818 C575.889847,537.781122 580.272529,542.152509 581.6612,547.984314 C582.980929,553.569427 582.094543,559.460438 583.04987,565.114625 C583.749129,569.308394 585.452959,573.275205 586.398436,577.419635 C587.629527,582.777791 587.59998,588.333301 588.22045,593.800002 C589.993221,609.588307 597.153243,625.376612 592.878897,640.691268 C592.022058,643.769987 590.69248,646.898045 591.293252,650.035971 C591.588714,651.57533 592.337217,653.094955 592.00236,654.624447 C591.726596,655.926982 590.722026,656.933486 590.209892,658.166948 C589.22502,660.475987 590.268985,663.219205 592.022058,665.005257 C593.892034,666.670211 596.065875,667.956923 598.423729,668.794451 C605.682239,671.902773 613.196815,675.060434 621.075795,674.99136 C622.032212,675.042421 622.987156,674.866616 623.862984,674.47824 C625.2812,673.738164 625.98046,672.12973 626.581232,670.649576 L630.619209,660.643738 C631.111645,659.430012 631.604081,658.009065 630.924519,656.884148 C630.451275,656.26728 629.87878,655.733702 629.230539,655.305317 C625.970611,652.552232 626.709265,647.411165 627.575953,643.276603 C629.789852,632.657376 631.016343,621.855367 631.239679,611.009254 C631.673022,589.379276 628.117633,567.877578 624.572092,546.533764 C623.341002,539.123128 622.100062,531.663154 619.64773,524.558417 C617.195397,517.453679 613.580916,510.61537 614.171839,503.234337 C614.802157,495.261243 612.733925,486.903309 614.171839,479.03876 C615.609753,471.17421 617.884808,463.477412 619.352268,455.62273 C621.253072,445.429405 621.725811,435.038727 622.306885,424.697387 C622.553104,420.474016 622.868263,416.112497 624.838008,412.362774 C625.990308,410.172147 627.664592,408.297286 628.954774,406.175732 C632.283643,400.659693 632.815474,393.821383 635.996612,388.216535 C637.503467,385.562126 639.581548,383.223484 640.684605,380.381589 C641.459117,378.139934 641.86492,375.787076 641.88615,373.414999 C642.198302,367.459728 641.8681,361.488095 640.901277,355.603818 C624.135736,347.056198 605.54253,342.734267 586.733293,343.012644 C579.533875,343.131057 572.255668,343.861266 565.499443,346.357792 C559.058377,348.75564 553.188537,352.120523 546.392917,352.633643 Z" id="Path" fill="#3F3D56"></path>
            <path d="M587.593381,665.358275 C584.675751,668.984779 584.87423,674.166915 583.008535,678.43747 C580.745884,683.619606 575.704538,686.938947 570.921214,689.961034 L541.149489,708.787148 C539.521968,709.777997 537.77536,710.99674 537.179925,712.839717 C536.897006,714.016157 536.94856,715.248088 537.328784,716.396862 C538.772813,721.449171 542.691324,725.421322 547.72904,726.939486 C550.363847,727.566169 553.070004,727.842694 555.77733,727.76189 L569.164682,727.940243 C573.242984,728.099444 577.32751,727.940425 581.381014,727.464636 C585.092556,726.929578 588.704858,725.86937 592.396552,725.195594 C599.115038,723.97685 606.022079,724.085844 612.750489,722.906734 C616.87056,722.09797 620.939701,721.049182 624.937048,719.765746 C629.799763,718.309199 634.751794,716.793201 638.919835,713.909833 C640.067286,713.212606 640.998323,712.210982 641.609214,711.016557 C642.313812,709.381657 641.92678,707.508954 641.529823,705.77497 L635.138826,677.733968 C634.778183,675.398867 633.925838,673.166628 632.638001,671.184462 C631.218882,669.30185 628.668438,668.053381 626.455406,668.855968 C625.542215,669.271292 624.679803,669.78993 623.885114,670.401692 C620.610224,672.551832 616.412411,672.908537 612.542086,672.234761 C610.041262,671.788879 606.7366,671.105194 604.722047,669.450477 C603.193765,668.1921 602.737265,666.240129 601.437233,664.813308 C599.594004,662.923259 597.033831,661.903305 594.393741,662.007233 C591.75365,662.111161 589.281852,663.329199 587.593381,665.358275 Z" id="Path" fill="#FFFFFF"></path>
            <circle id="Oval" fill="#FBBEBE" cx="567" cy="93" r="36"></circle>
            <path d="M539.106281,96.4993732 C542.505741,94.56962 542.505741,89.0091456 545.983802,87.1589699 C549.461863,85.3087942 553.411525,88.5217338 555.641807,91.7645149 C558.892612,96.513636 561.149505,101.885814 562.273703,107.550692 C562.588104,109.162135 562.882855,110.922786 564.081508,112.046818 C565.280162,113.170849 566.852167,113.31011 568.384872,113.469264 C572.871636,113.920203 577.36495,114.331353 581.864814,114.702715 C586.87558,115.110549 592.161446,115.438806 596.710435,113.260374 C598.505696,112.447743 600.047932,111.154592 601.170999,109.520233 C602.071289,107.950902 602.714952,106.24448 603.077055,104.467065 C605.425237,95.4250776 607.79307,86.2736708 607.98957,76.9233204 C608.068171,73.063814 607.73412,69.0650472 605.896839,65.6830055 C604.825911,63.6935693 603.253906,61.9627597 602.811779,59.7743798 C602.369653,57.586 603.794282,54.8007892 606.034389,55.0395215 C604.009519,55.1238273 601.992599,54.7358481 600.139371,53.9055429 C598.36104,52.9108247 597.044486,50.7721808 597.673288,48.8225332 C592.682173,49.4691 589.046911,44.475615 585.156199,41.2427811 C584.523553,40.6077561 583.669412,40.2504168 582.778542,40.248063 C582.094955,40.4206992 581.434981,40.677948 580.813536,41.0139959 C578.84853,41.7102986 576.795098,40.3873235 574.780967,39.810387 C569.3772,38.2785211 562.509504,41.9788725 558.500891,38 C558.884067,40.5365312 555.808833,42.2374992 553.273975,42.1877633 C550.739117,42.1380274 548.125659,41.1930452 545.728351,42.0485028 C546.431428,43.3502505 546.523776,44.9018155 545.980182,46.2796199 C545.436588,47.6574243 544.313819,48.7175876 542.918392,49.1706846 L544.107221,51.7967404 C541.608601,52.3024507 539.609511,54.1991749 538.94908,56.6907536 C537.642351,61.9130238 537.966577,69.3336211 538.280978,74.705099 C538.438178,77.0625809 540.707761,95.614074 539.106281,96.4993732 Z" id="Path" fill="#192534"></path>
            <path d="M569.959552,139.795111 C552.226883,159.822896 547.713113,188.014875 543.932098,214.558314 L538.36316,253.750364 C536.917191,263.916355 535.432141,274.082345 534.171802,284.277773 C533.292496,291.254625 532.471811,298.339417 533.429277,305.306457 C534.181572,310.801587 536.008575,316.100462 537.532705,321.389524 C541.498521,335.262105 543.472442,349.632224 543.394744,364.065095 C544.576922,360.571762 548.670579,359.158729 552.265963,358.37371 C582.433868,351.79964 613.908492,355.175586 642.013783,368 C646.947666,354.114985 646.01951,338.924876 647.397089,324.245029 C649.351102,303.314472 656.082677,283.031556 658.075771,262.14025 C658.808526,254.358754 658.896456,246.538007 658.974617,238.717259 C659.033237,232.976811 659.091857,227.177487 657.899909,221.554792 C656.571181,215.33352 653.767172,209.534195 650.865462,203.891875 C642.844159,188.207386 633.9322,172.998755 624.173644,158.341174 C619.262558,150.962 614.139787,143.730016 608.805331,136.645224 C606.10228,133.053764 603.343865,129.501555 600.530086,125.988597 C597.804238,122.583579 596.62206,119.629947 592.293921,121.670995 C584.116376,125.517586 575.909521,133.07339 569.959552,139.795111 Z" id="Path" fill="#8C56F8"></path>
            <path d="M579.537584,306.231506 C575.1955,306.389599 570.847765,306.251065 566.524303,305.816857 C563.317563,305.500934 560.042178,305.027049 556.913891,305.816857 C555.553656,306.161702 554.280672,306.790708 553.177599,307.663033 C552.342371,308.411663 552.026632,309.587091 552.373242,310.657474 C552.719852,311.727857 553.663048,312.490107 554.776065,312.599331 L558.129903,312.895509 C560.257922,313.083089 562.474201,313.300286 564.131506,314.870029 C564.812083,315.486842 565.244668,316.333256 565.347518,317.249325 C565.553455,319.54964 563.572533,320.80346 561.797549,321.761102 C559.274144,322.953955 556.940848,324.517746 554.874131,326.401223 C553.255752,327.975251 552.238664,330.072055 552.000814,332.324782 C551.985478,332.733472 552.187794,333.119377 552.531606,333.337234 C552.875417,333.55509 553.308536,333.571829 553.667926,333.38115 C557.590543,331.40663 560.15005,325.55218 564.455122,326.529567 C560.539239,327.77788 557.185271,330.374965 554.982003,333.864907 C553.863001,335.580509 554.063341,337.845695 555.465819,339.335276 C556.868296,340.824856 559.104389,341.147421 560.865928,340.114262 C561.503308,339.738575 562.118853,339.326546 562.709558,338.880187 C565.626337,336.503137 568.238531,333.770543 570.486146,330.745166 C567.348052,337.40917 564.170733,345.208522 567.77954,351.833035 C568.147081,352.577534 568.915813,353.034141 569.740848,352.998002 C570.878407,352.879531 571.21183,351.803418 571.398154,350.855648 C571.986547,347.805015 572.133645,344.586549 573.624239,341.871584 C577.076142,335.572867 585.588221,334.960766 592.070345,331.890388 C599.846933,328.257272 605.171885,320.438174 607.319518,312.085956 C608.070972,309.650165 608.202483,307.063337 607.701973,304.563037 C606.260411,298.945529 599.376219,297.652218 594.953468,300.367183 C589.53045,303.832465 586.38255,306.014309 579.537584,306.231506 Z" id="Path" fill="#FBBEBE"></path>
            <path d="M573.421212,196.419315 C580.392169,207.049195 592.491758,213.037721 602.868525,220.501254 C605.400219,222.129343 607.607754,224.202482 609.38139,226.617614 C612.000478,230.609964 612.368943,235.683987 611.831183,240.38434 C611.154005,246.589201 609.132427,252.55806 607.130767,258.477753 L602.778898,271.310309 C600.020391,279.452344 597.172257,287.761547 591.924123,294.605577 C590.579724,296.346084 589.016238,298.204592 589.075989,300.387602 C589.191975,301.648738 589.630596,302.860091 590.350678,303.907951 C593.744239,309.375574 599.238558,313.250267 605.577239,314.645997 C607.456026,315.118001 609.424596,315.118001 611.303382,314.645997 C613.99218,313.859327 616.013757,311.695985 617.885957,309.650642 C626.848615,299.8861 635.811274,289.98389 642.284305,278.528007 C648.607958,267.347458 652.392192,254.927904 655.87767,242.62635 C657.31305,238.097708 658.313317,233.445648 658.865223,228.73179 C659.602153,219.881751 657.251945,211.031712 653.40796,203.037178 C649.563975,195.042643 644.276007,187.805278 638.828702,180.774414 C633.687582,173.868408 627.975038,167.39551 621.749859,161.42233 C610.915,151.421786 597.660224,145.541427 583.160635,151.215285 C572.923287,155.227303 569.089261,163.595506 568.173078,174.313886 C567.397432,182.05277 569.243174,189.827134 573.421212,196.419315 Z" id="Path" fill="#000000" opacity="0.1"></path>
            <path d="M576.462308,192.347973 C583.432349,202.98513 595.540306,208.977756 605.905752,216.446398 C608.42878,218.091527 610.625711,220.179247 612.38789,222.606306 C615.006634,226.60139 615.37505,231.669046 614.837361,236.382458 C614.150314,242.591566 612.13896,248.564512 610.127605,254.488257 L605.776308,267.280398 C603.018164,275.428008 600.170404,283.73306 594.922959,290.591615 C593.588694,292.333314 592.025414,294.183255 592.085157,296.377599 C592.194895,297.637909 592.634082,298.848423 593.359679,299.890518 C596.747663,305.364248 602.237932,309.245332 608.574282,310.645756 C610.456193,311.118081 612.427719,311.118081 614.30963,310.645756 C616.998074,309.868388 619.009429,307.693724 620.89134,305.656821 C629.852821,295.875753 638.814302,285.976604 645.286482,274.512878 C651.609305,263.324675 655.393041,250.896618 658.878062,238.576802 C660.317139,234.049421 661.317361,229.397075 661.865222,224.682569 C662.602055,215.826471 660.252156,206.970374 656.418633,198.960526 C652.585111,190.950677 647.28788,183.718198 641.841291,176.68252 C636.683103,169.807882 630.95809,163.366872 624.724862,157.425428 C613.901384,147.427878 600.64835,141.533653 586.150665,147.221236 C575.904705,151.236 572.08114,159.600092 571.15512,170.33565 C570.424247,178.050366 572.289757,185.787835 576.462308,192.347973 L576.462308,192.347973 Z" id="Path" fill="#8C56F8"></path>
            <path d="M795,546.550051 C795.007369,549.160336 794.739393,551.764104 794.200384,554.31795 C794.100452,554.798439 793.990526,555.318968 793.8806,555.729386 C791.042511,567.130981 783.037903,575.46946 773.484337,576 C773.164552,576 772.844768,576 772.48501,576 C762.381815,576 753.83757,567.271123 751.019468,555.248897 C750.939521,554.928571 750.869569,554.608246 750.799616,554.247879 C750.260607,551.694033 749.992631,549.090265 750,546.47998 C750,530.193417 760.063376,517 772.48501,517 C784.906644,517 795,530.293519 795,546.550051 Z" id="Path" fill="#3F3D56"></path>
            <path d="M795,546.265018 C795.007376,548.766026 794.739161,551.260791 794.199673,553.707723 C794.099652,554.168097 793.989628,554.666835 793.879605,555.06007 C793.539531,555.06007 793.20946,555.06007 792.879389,555.06007 C790.402478,554.932178 787.940508,554.611418 785.517804,554.100959 C783.371255,554.737153 781.177964,555.218057 778.956391,555.539626 C777.253059,555.785506 775.536639,555.939207 773.815283,556 L772.074908,556 C770.014307,556 767.955979,555.868829 765.913581,555.606764 C762.610899,555.183823 759.367143,554.411839 756.241498,553.304896 C754.530366,553.851157 752.786925,554.299531 751.020374,554.647652 C750.940357,554.340737 750.870342,554.033821 750.800327,553.688541 C750.260839,551.241609 749.992624,548.746844 750,546.245835 C750,530.64109 760.072323,518 772.505001,518 C784.937679,518 795,530.689046 795,546.265018 Z" id="Path" fill="#000000" opacity="0.1"></path>
            <path d="M842,492.604684 C842.008736,485.627359 840.363499,478.746154 837.197249,472.519575 L811.26549,480.539975 L834.031732,467.227865 C826.296152,456.120446 813.910827,449.102322 800.357687,448.146524 C799.292724,446.539624 798.124026,445.003132 796.858958,443.546732 L759.61758,455.075448 L790.16531,437.212273 C778.297931,428.155487 762.668619,425.583775 748.499901,430.356472 C734.331184,435.129169 723.491416,446.616926 719.602701,460.981113 L751.50288,497.496835 L716.897801,472.607283 C698.780047,485.385342 692.805,509.429917 702.85233,529.12857 C712.899661,548.827224 735.939026,558.238709 757.010684,551.252032 C766.232718,554.622988 776.310798,554.900222 785.706145,552.041403 C798.972809,554.944808 812.847986,551.71497 823.440187,543.257743 C834.032387,534.800516 840.200931,522.026663 840.215761,508.518795 C840.215761,507.544262 840.215761,506.56973 840.117757,505.595198 C841.387693,501.381411 842.021822,497.003568 842,492.604684 L842,492.604684 Z" id="Path" fill="#8C56F8"></path>
            <path d="M842,501.339323 C828.237554,498.732449 814.124779,498.552573 800.300282,500.807833 C784.650576,503.39639 768.656164,509.08531 753.351166,504.931808 C744.369082,502.490887 736.608246,496.841336 727.832986,493.701603 C719.366333,490.749665 710.245896,490.204496 701.48751,492.126815 C694.671187,508.423154 698.015706,527.197043 710.04113,540.141103 C722.066554,553.085163 740.552977,557.809907 757.320222,552.224652 C766.587813,555.629196 776.715679,555.909192 786.157439,553.021888 C799.48964,555.954222 813.433361,552.692202 824.077887,544.150708 C834.722413,535.609215 840.921429,522.708085 840.936332,509.065626 C840.936332,508.081383 840.936332,507.097141 840.837844,506.112899 C841.312936,504.544319 841.700912,502.950697 842,501.339323 Z" id="Path" fill="#000000" opacity="0.1"></path>
        </g>
        <g id="undraw_chat_bot_re_e2gj" transform="translate(-179.000000, 919.000000)" fill-rule="nonzero">
            <path d="M357.63869,141.282295 C351.636071,133.41961 343.152932,126.144533 342.615697,116.442132 C342.123231,107.543249 348.686881,98.7080035 345.91886,90.1944341 C343.790207,83.6484768 336.768375,79.698683 329.906739,77.6070696 C316.77002,73.6601035 302.711874,74.2072348 289.914215,79.1635453 L290.608838,78.6683511 C282.797959,75.8555981 273.667759,78.7593028 267.522437,84.1374724 C261.37647,89.5155551 257.724189,96.9702327 254.890426,104.440638 C252.055946,111.911059 249.860145,119.654769 245.922514,126.658279 C241.984224,133.661877 235.954987,140.031044 228,142.451502 C230.663081,147.821634 238.98813,149.663912 243.870807,145.963569 C245.118137,144.939491 246.239339,143.767731 247.210345,142.473444 C250.466638,138.470411 253.723155,134.467408 256.979897,130.464433 C260.330624,136.488954 255.324827,144.803994 259.443627,150.381402 C261.567381,153.257677 265.446246,154.349922 269.0488,155.133381 C297.205477,161.206738 326.413778,160.111523 354.048026,151.946191 C356.269027,151.284547 358.719463,150.373364 359.640728,148.341145 C360.704711,145.995012 359.216813,143.349867 357.63869,141.282295 Z" id="Path" fill="#2F2E41"></path>
            <path d="M437.434188,170.651856 C437.25901,171.427989 437.144819,172.216834 437.092676,173.01106 L375.786859,208.658104 L360.885618,200.011862 L345,220.972992 L369.90389,238.863401 C374.036547,241.832217 379.61743,241.695174 383.601747,238.527039 L446.818604,188.260089 C452.660019,190.439496 459.229957,188.748352 463.319243,184.012719 C467.408528,179.277085 468.163853,172.485145 465.216268,166.954512 C462.268683,161.423878 456.233259,158.308627 450.058081,159.130443 C443.882902,159.952259 438.85654,164.539655 437.434188,170.651856 Z" id="Path" fill="#FFB7B7"></path>
            <path d="M373.64378,210.902736 L353.555585,236.508276 C352.399008,237.982485 350.647256,238.888563 348.756806,238.990402 C346.866357,239.092241 345.02446,238.379753 343.711086,237.038601 L320.969909,213.813448 C313.10188,207.78462 311.683284,196.628546 317.79936,188.879729 C323.915436,181.130912 335.256214,179.715992 343.145889,185.717395 L371.668361,201.402858 C373.320572,202.312113 374.488539,203.883634 374.867906,205.707906 C375.247273,207.532178 374.800464,209.428506 373.64391,210.902736 L373.64378,210.902736 Z" id="Path" fill="#8C56F8"></path>
            <polygon id="Path" fill="#FFB7B7" points="346.002874 660 363.619763 659.998562 372 592 346 592.001438"></polygon>
            <path d="M342,655.001448 L376.812973,655 L376.814415,655 C389.066766,655.000664 398.999148,664.972647 399,677.274042 L399,677.997872 L342.001024,678 L342,655.001448 Z" id="Path" fill="#2F2E41"></path>
            <polygon id="Path" fill="#FFB7B7" points="225.002874 660 242.619763 659.998562 251 592 225 592.001438"></polygon>
            <path d="M221,655.001448 L255.812973,655 L255.814415,655 C268.066766,655.000664 277.999148,664.972647 278,677.274042 L278,677.997872 L221.001024,678 L221,655.001448 Z" id="Path" fill="#2F2E41"></path>
            <circle id="Oval" fill="#FFB7B7" transform="translate(305.364372, 127.683633) rotate(-83.735600) translate(-305.364372, -127.683633) " cx="305.364372" cy="127.683633" r="30.3950574"></circle>
            <path d="M323.027693,173 L340.942762,181.859796 C340.942762,181.859796 360.959369,216.585635 349.477438,249.539149 C343.902818,265.538481 359.600898,316.539374 359.600898,316.539374 C359.600898,316.539374 383.923229,547.553535 384,618.852044 C353.783162,623.489892 325.078337,629.220938 323.643095,614.893324 C322.207854,600.565709 306.496971,431.160291 306.496971,431.160291 C306.496971,431.160291 284.891581,619.191608 267.668686,622.057131 C250.445791,624.922654 216,620.624369 216,620.624369 C216,620.624369 243.346355,345.194603 262.004492,328.001466 L264.874974,313.673851 L264.798203,185.064883 L286.294659,174.823991 L323.027693,173 Z" id="Path" fill="#2F2E41"></path>
            <path d="M258.718571,368.085713 C262.688216,365.917732 265.502568,362.086381 266.404336,357.622607 C267.306103,353.158833 266.202655,348.521171 263.390907,344.957529 L284,206.304653 L257.074667,205 L241.009387,343.078974 C235.265041,348.359342 234.341427,357.141717 238.859502,363.521589 C243.377577,369.901461 251.909255,371.862259 258.718571,368.085713 L258.718571,368.085713 Z" id="Path" fill="#FFB7B7"></path>
            <path d="M284.054701,240.987165 L251.121925,238.945112 C249.225839,238.827526 247.47577,237.905164 246.327758,236.418377 C245.179747,234.931591 244.747506,233.027649 245.143671,231.20269 L252.005732,199.601764 C252.690739,189.800034 261.323197,182.391655 271.30463,183.039442 C281.286064,183.687229 288.850965,192.146802 288.216877,201.951837 L290.976958,234.044753 C291.136288,235.904152 290.46368,237.739579 289.134406,239.072751 C287.805132,240.405924 285.950856,241.10479 284.054773,240.987237 L284.054701,240.987165 Z" id="Path" fill="#8C56F8"></path>
            <path d="M1183.19909,110 L463.800911,110 C452.86517,110 444,118.856372 444,129.781261 L444,530.218739 C444,541.143628 452.86517,550 463.800911,550 L1183.19909,550 C1194.13483,550 1203,541.143628 1203,530.218739 L1203,129.781261 C1203,124.534944 1200.91384,119.503503 1197.20045,115.793797 C1193.48706,112.084091 1188.45062,110 1183.19909,110 L1183.19909,110 Z" id="Path" fill="#3F3D56"></path>
            <rect id="Rectangle" fill="#FFFFFF" x="468" y="139" width="709" height="398"></rect>
            <circle id="Oval" fill="#FFFFFF" cx="823" cy="127" r="7"></circle>
            <polygon id="Path" fill="#F2F2F2" points="847 543 471 543 471 145"></polygon>
            <path d="M1222.36877,535.960067 L1153.44432,535.960067 L1153.44432,530.98618 C1153.44433,530.441549 1153.00354,530 1152.45977,530 L1128.82837,530 C1128.56724,530 1128.31679,530.103858 1128.13212,530.28879 C1127.94746,530.473722 1127.8437,530.724556 1127.84369,530.986108 L1127.84369,535.960067 L1113.07449,535.960067 L1113.07449,530.98618 C1113.07449,530.724628 1112.97076,530.473787 1112.7861,530.288841 C1112.60145,530.103896 1112.35101,530 1112.08987,530 L1088.45865,530 C1088.19751,530 1087.94706,530.10389 1087.76241,530.288836 C1087.57775,530.473782 1087.47401,530.724625 1087.47402,530.98618 L1087.47402,530.98618 L1087.47402,535.960067 L1072.70457,535.960067 L1072.70457,530.98618 C1072.70458,530.724625 1072.60084,530.473782 1072.41619,530.288836 C1072.23153,530.10389 1071.98108,530 1071.71994,530 L1048.08863,530 C1047.82749,530 1047.57705,530.10389 1047.39239,530.288836 C1047.20774,530.473782 1047.104,530.724625 1047.104,530.98618 L1047.104,530.98618 L1047.104,535.960067 L1032.33456,535.960067 L1032.33456,530.98618 C1032.33456,530.724628 1032.23083,530.473787 1032.04618,530.288841 C1031.86152,530.103896 1031.61108,530 1031.34994,530 L1007.71869,530 C1007.45756,530 1007.20712,530.103875 1007.02247,530.288807 C1006.83782,530.473738 1006.73407,530.724565 1006.73406,530.986108 L1006.73406,535.960067 L991.964616,535.960067 L991.964616,530.98618 C991.96462,530.724625 991.860883,530.473782 991.676228,530.288836 C991.491573,530.10389 991.241126,530 990.979986,530 L967.348747,530 C967.087607,530 966.83716,530.10389 966.652505,530.288836 C966.46785,530.473782 966.364113,530.724625 966.364117,530.98618 L966.364117,530.98618 L966.364117,535.960067 L951.594573,535.960067 L951.594573,530.98618 C951.594577,530.724628 951.490842,530.473787 951.30619,530.288841 C951.121538,530.103896 950.871095,530 950.609957,530 L926.978732,530 C926.717592,530 926.467146,530.10389 926.282491,530.288836 C926.097836,530.473782 925.994099,530.724625 925.994103,530.98618 L925.994103,530.98618 L925.994103,535.960067 L911.224659,535.960067 L911.224659,530.98618 C911.224662,530.724625 911.120926,530.473782 910.936271,530.288836 C910.751616,530.10389 910.501169,530 910.240029,530 L725.128875,530 C724.867735,530 724.617288,530.10389 724.432633,530.288836 C724.247978,530.473782 724.144241,530.724625 724.144245,530.98618 L724.144245,530.98618 L724.144245,535.960067 L709.374701,535.960067 L709.374701,530.98618 C709.374705,530.724625 709.270968,530.473782 709.086313,530.288836 C708.901658,530.10389 708.651211,530 708.390071,530 L684.758932,530 C684.497792,530 684.247346,530.10389 684.062691,530.288836 C683.878035,530.473782 683.774299,530.724625 683.774303,530.98618 L683.774303,530.98618 L683.774303,535.960067 L669.004758,535.960067 L669.004758,530.98618 C669.004766,530.724637 668.90104,530.473802 668.7164,530.288857 C668.531759,530.103913 668.281329,530 668.0202,530 L644.388918,530 C644.127778,530 643.877331,530.10389 643.692676,530.288836 C643.508021,530.473782 643.404284,530.724625 643.404288,530.98618 L643.404288,530.98618 L643.404288,535.960067 L628.634729,535.960067 L628.634729,530.98618 C628.634733,530.724625 628.530996,530.473782 628.346341,530.288836 C628.161686,530.10389 627.911239,530 627.6501,530 L604.018903,530 C603.757763,530 603.507317,530.10389 603.322661,530.288836 C603.138006,530.473782 603.03427,530.724625 603.034273,530.98618 L603.034273,530.98618 L603.034273,535.960067 L588.264829,535.960067 L588.264829,530.98618 C588.264833,530.724625 588.161097,530.473782 587.976441,530.288836 C587.791786,530.10389 587.54134,530 587.2802,530 L563.64896,530 C563.38782,530 563.137374,530.10389 562.952719,530.288836 C562.768064,530.473782 562.664327,530.724625 562.664331,530.98618 L562.664331,530.98618 L562.664331,535.960067 L547.894786,535.960067 L547.894786,530.98618 C547.89479,530.724625 547.791053,530.473782 547.606398,530.288836 C547.421743,530.10389 547.171296,530 546.910157,530 L523.278946,530 C522.73518,530 522.294356,530.441478 522.294316,530.986108 L522.294316,535.960067 L507.524872,535.960067 L507.524872,530.98618 C507.524876,530.724633 507.421145,530.473796 507.236499,530.288851 C507.051854,530.103907 506.801418,530 506.540286,530 L482.908974,530 C482.365184,530 481.924353,530.441526 481.924345,530.98618 L481.924345,530.98618 L481.924345,535.960067 L436.631182,535.960067 C430.363799,535.960071 424.353113,538.45374 419.921407,542.892495 C415.489701,547.33125 413,553.351492 413,559.628836 L413,570.331288 C413,583.403162 423.580052,594 436.631182,594 L1222.36877,594 C1235.41991,594 1246,583.403169 1246,570.331288 L1246,559.628836 C1246,553.351483 1243.5103,547.331233 1239.07858,542.892475 C1234.64687,538.453718 1228.63617,535.960056 1222.36877,535.960067 L1222.36877,535.960067 Z" id="Path" fill="#3F3D56"></path>
            <path d="M891,491.536491 C890.764459,492.090591 890.499679,492.632037 890.206756,493.158588 C888.669193,495.970296 886.496647,498.391914 883.858681,500.23444 C877.491353,504.67452 869.158009,505.230527 862.24737,501.676363 C855.336731,498.1222 851,491.049795 851,483.335114 L851,480 L853.85649,480 C864.954516,487.107922 877.792768,491.095385 891,491.536491 Z" id="Path" fill="#3F3D56"></path>
            <path d="M932,480 L932,482.458434 C932.003481,492.304557 925.536808,500.898743 916.294646,503.330792 C907.052483,505.762842 897.389698,501.413079 892.82702,492.766695 C892.521442,492.20446 892.24537,491.625668 892,491.032827 C892.609969,491.050101 893.211356,491.058738 893.82174,491.058738 C907.291822,491.074828 920.504205,487.247722 932,480 Z" id="Path" fill="#3F3D56"></path>
            <path d="M959,228 C966.040491,244.50364 966.528482,263.138509 960.361724,280 C960.981083,279.925406 961.59249,279.825904 962.203897,279.709798 C974.533083,277.280025 983.326171,266.136634 982.99072,253.36687 C982.655268,240.597106 973.289689,229.947269 960.850531,228.190701 C960.239124,228.099501 959.619765,228.041427 959,228 Z" id="Path" fill="#3F3D56"></path>
            <path d="M827.149441,228.190701 C814.710247,229.947462 805.34473,240.597249 805.00928,253.366886 C804.67383,266.136523 813.466856,277.279846 825.796068,279.709798 C826.40747,279.825904 827.018887,279.925406 827.638255,280 C821.471931,263.13842 821.959924,244.503758 829,228 C828.380226,228.041441 827.760857,228.099516 827.149441,228.190701 Z" id="Path" fill="#3F3D56"></path>
            <path d="M960.415219,228.203743 C946.12574,194.072631 908.28879,176.331123 872.909706,187.172959 C837.530622,198.014795 816.131812,233.90896 823.420678,270.185394 C830.709544,306.461827 864.31222,331.305869 901.133583,327.642208 C937.954946,323.978547 966.002864,293.000379 966,255.999002 C965.996499,246.455619 964.098209,237.007894 960.415219,228.203743 Z M959.913194,280.512379 C947.218601,314.634406 910.573994,333.421523 875.456673,323.811916 C840.339353,314.202309 818.36735,279.375171 824.816783,243.5442 C831.266216,207.71323 864.003388,182.732559 900.267656,185.970093 C936.531925,189.207627 964.325505,219.592278 964.325505,255.999002 C964.322847,264.367361 962.828716,272.668272 959.913194,280.512379 L959.913194,280.512379 Z" id="Shape" fill="#3F3D56"></path>
            <path d="M930.345531,239 L856.654469,239 C848.561029,239 842,245.715729 842,254 C842,262.284271 848.561029,269 856.654469,269 L930.345531,269 C938.438971,269 945,262.284271 945,254 C945,245.715729 938.438971,239 930.345531,239 Z" id="Path" fill="#3F3D56"></path>
            <path d="M959.605136,381.666153 C959.338116,381.174307 959.06296,380.690832 958.779666,380.215726 C958.771534,380.199034 958.762988,380.190687 958.754841,380.174052 C940.637299,349.161367 903.074134,335.348362 869.180424,347.235083 C835.286713,359.121805 814.579974,393.370404 819.802419,428.905474 C825.024865,464.440545 854.710008,491.283667 890.590634,492.916508 C891.382318,492.958168 892.182548,492.983149 892.982778,492.983149 C893.31655,492.999921 893.641362,492.999921 893.975134,492.999921 C907.376529,493.019409 920.534887,489.422486 932.062677,482.588364 C944.58398,475.178071 954.698127,464.308694 961.188932,451.287231 C961.197064,451.270553 961.205625,451.262206 961.213757,451.245514 C961.464079,450.745312 961.705869,450.236908 961.947645,449.720085 C972.117547,427.970727 971.24651,402.664805 959.605208,381.666153 L959.605136,381.666153 Z M960.32193,449.261572 C960.08015,449.778456 959.830095,450.286952 959.571765,450.787058 C953.371015,463.114026 943.841342,473.457767 932.062677,480.646096 C920.594198,487.649908 907.41321,491.34822 893.975134,491.332719 C893.3662,491.332719 892.766242,491.324324 892.157723,491.307632 C891.89925,491.307632 891.640781,491.299305 891.382318,491.28265 C856.222743,490.053927 826.886369,464.037083 821.465456,429.277167 C816.044543,394.517252 836.065733,360.803378 869.181603,348.927489 C902.297474,337.051599 939.181908,350.358191 957.087624,380.640854 C957.09577,380.65749 957.104316,380.665836 957.112448,380.682528 C957.404303,381.157677 957.687596,381.641114 957.954611,382.124609 C969.562453,402.801776 970.444559,427.818209 960.32193,449.261572 L960.32193,449.261572 Z" id="Shape" fill="#3F3D56"></path>
            <path d="M897.390932,382.588016 C895.930456,381.560809 894.183269,381.005992 892.390078,381 L859.609743,381 C854.854713,381 851,384.805572 851,389.499983 C851,394.194394 854.854713,398 859.609743,398 L892.390078,398 C892.975155,398.001595 893.558843,397.943684 894.131892,397.827152 C894.702552,397.705509 895.260579,397.531968 895.798829,397.308752 C898.652124,396.095147 900.621388,393.457521 900.951238,390.407631 C901.281087,387.357741 899.920313,384.369091 897.390889,382.588086 L897.390932,382.588016 Z" id="Path" fill="#3F3D56"></path>
            <circle id="Oval" fill="#F1F1F1" cx="862" cy="390" r="4"></circle>
            <circle id="Oval" fill="#F1F1F1" cx="876" cy="390" r="4"></circle>
            <circle id="Oval" fill="#8C56F8" cx="890" cy="390" r="4"></circle>
            <path d="M1055.33907,246.062074 C1043.93111,252.903406 1023.60614,261.475765 1002.83623,252.666108 L989.410085,246.971259 L1016.31513,216.812294 C971.827286,167.762295 971.903855,92.9366729 1016.49199,43.9778185 C1061.08013,-4.98103585 1135.57551,-12.0372297 1188.56367,27.6792096 C1241.55184,67.3956488 1255.67714,140.876072 1221.19071,197.406503 C1186.70429,253.936935 1114.90176,275.001501 1055.33907,246.062074 L1055.33907,246.062074 Z" id="Path" fill="#FFFFFF"></path>
            <path d="M1055.88431,247.155555 C1044.9166,253.591982 1024.02385,262.487124 1002.72318,253.454714 L987.44657,246.977685 L1014.84385,216.279523 C967.252785,162.770343 971.931114,80.8630601 1025.30569,33.1157715 C1078.68026,-14.6315171 1160.63811,-10.2263547 1208.58251,42.9667402 C1256.52692,96.1598351 1252.39115,178.09628 1199.33397,226.195705 L1199.33397,226.195705 C1160.28653,261.808909 1103.49621,270.106711 1055.88434,247.155555 L1055.88431,247.155555 Z M1206.1683,44.5747531 C1175.65908,10.9329943 1129.50979,-3.88026648 1085.10954,5.71662515 C1040.70929,15.3135168 1004.8059,47.8620527 990.927816,91.0979055 C977.049728,134.333758 987.306092,181.686067 1017.8323,215.312424 L1018.69929,216.268322 L992.253773,245.900625 L1003.84379,250.814657 C1024.41567,259.537494 1044.77263,250.476414 1055.07636,244.299808 L1055.74245,243.899937 L1056.4413,244.239586 C1111.22581,270.84742 1177.19291,254.876196 1213.72494,206.159812 C1250.25696,157.443428 1247.0876,89.6722732 1206.16831,44.5748104 L1206.1683,44.5747531 Z" id="Shape" fill="#8C56F8"></path>
            <path d="M1220.27058,129.000021 C1220.26683,67.8741165 1173.71658,16.8691694 1113,11.4640073 C1116.4276,11.162912 1119.8947,11 1123.40018,11 C1188.36024,11.0392924 1241,63.8581817 1241,129 C1241,194.141818 1188.36024,246.960708 1123.40018,247 C1119.89998,247 1116.43884,246.834984 1113.01643,246.534533 C1173.72592,241.121376 1220.26678,190.119557 1220.27058,129.000021 Z" id="Path" fill="#000000" opacity="0.1"></path>
            <rect id="Rectangle" fill="#8C56F8" x="1044" y="105" width="84" height="8"></rect>
            <rect id="Rectangle" fill="#8C56F8" x="1044" y="132" width="148" height="8"></rect>
            <rect id="Rectangle" fill="#8C56F8" x="1044" y="160" width="147" height="8"></rect>
            <path d="M547.56658,679 L1.43342037,679 C0.641764158,679 0,678.328427 0,677.5 C0,676.671573 0.641764158,676 1.43342037,676 L547.56658,676 C548.358236,676 549,676.671573 549,677.5 C549,678.328427 548.358236,679 547.56658,679 Z" id="Path" fill="#CBCBCB"></path>
            <path d="M337.158534,108.505795 C335.97396,103.163218 332.126708,98.736723 327.694514,95.4948964 C312.617134,84.4671853 291.767691,85.7277939 278.145363,98.4907598 C274.456795,101.729976 271.797557,105.967739 270.492865,110.685785 C269.229277,115.473569 270.429701,120.572837 273.699138,124.305679 L274.306489,124.683888 C273.755879,122.361624 275.570227,120.041129 277.737632,119.016594 C279.991809,118.194007 282.344907,117.66943 284.736525,117.456326 C292.057824,116.080575 298.419857,111.616921 302.177363,105.219691 C304.961303,113.092804 311.033262,119.384417 318.830112,122.474856 C322.847587,124.036949 333.882177,126.185058 337.70702,124.201762 C342.586155,121.672177 338.343164,113.848458 337.158534,108.505795 Z" id="Path" fill="#2F2E41"></path>
        </g>
        <g id="undraw_voice_assistant_nrv7" transform="translate(289.000000, 1141.000000)" fill-rule="nonzero">
            <path d="M214,69.6277495 L212.391166,69.6277495 L212.391166,25.5253187 C212.391173,18.7555695 209.703696,12.2630904 204.919951,7.47616105 C200.136205,2.68923167 193.648055,0 186.882826,0 L93.5083396,0 C86.7431114,0 80.2549614,2.68923311 75.4712165,7.47616225 C70.6874715,12.2630914 68,18.7555699 68,25.5253187 L68,267.474685 C68,274.244434 70.6874717,280.736912 75.4712167,285.52384 C80.2549618,290.310769 86.7431117,293 93.5083396,293 L186.882847,293 C193.648075,293 200.136226,290.31077 204.919971,285.523842 C209.703716,280.736913 212.391194,274.244434 212.391186,267.474685 L212.391186,101.020623 L214,101.020623 L214,69.6277495 Z" id="Path" fill="#3F3D56"></path>
            <rect id="Rectangle" fill="#3F3D56" x="0" y="281" width="295" height="1"></rect>
            <path d="M187.939562,6 L175.743981,6 C176.882893,8.79529824 176.557115,11.9747538 174.875051,14.4803739 C173.192987,16.9859939 170.375364,18.4889839 167.35977,18.4892102 L113.835365,18.4892102 C110.819772,18.4889812 108.002151,16.9859909 106.320087,14.4803719 C104.638023,11.9747529 104.312242,8.79529898 105.45115,6 L94.0604384,6 C89.0053024,6 84.157209,8.0103214 80.5826834,11.5887347 C77.0081578,15.1671479 75,20.0205215 75,25.0811686 L75,266.918807 C75,271.979457 77.0081512,276.832836 80.5826771,280.411254 C84.1572029,283.989672 89.0052987,286 94.0604384,286 L187.939562,286 C192.994702,286 197.842798,283.989674 201.417324,280.411255 C204.99185,276.832837 207,271.979458 207,266.918807 L207,25.0811686 C207,20.0205211 204.991844,15.1671469 201.417318,11.5887334 C197.842792,8.01031995 192.994698,6 187.939562,6 Z" id="Path" fill="#000000" opacity="0.2"></path>
            <path d="M29.342248,282 L28.9063614,281.836285 C28.8105771,281.800123 19.2773705,278.14076 14.8116079,269.843268 C10.3456423,261.545398 12.5324184,251.554728 12.5550283,251.454987 L12.6579485,251 L13.0936401,251.163715 C13.1894244,251.199877 22.7224279,254.85924 27.1883936,263.156732 C31.6543552,271.454606 29.4675831,281.445272 29.4449732,281.545013 L29.342248,282 Z M15.5267164,269.457037 C19.3023603,276.472598 26.8357943,280.068793 28.7445386,280.88976 C29.1074498,278.840127 30.245554,270.55179 26.4732851,263.542984 C22.7014102,256.534971 15.1649951,252.933213 13.2554589,252.110261 C12.8923527,254.161078 11.7546627,262.448617 15.5267164,269.457037 Z" id="Shape" fill="#3F3D56"></path>
            <path d="M17.9076829,266.358951 C25.9158082,271.157332 29,280.688236 29,280.688236 C29,280.688236 19.1004424,282.43943 11.0923171,277.641049 C3.08419179,272.842668 0,263.311764 0,263.311764 C0,263.311764 9.89955359,261.56057 17.9076829,266.358951 Z" id="Path" fill="#8C56F8"></path>
            <rect id="Rectangle" fill="#8C56F8" x="98" y="95" width="18" height="4"></rect>
            <rect id="Rectangle" fill="#8C56F8" x="173" y="95" width="6" height="4"></rect>
            <rect id="Rectangle" fill="#8C56F8" x="185" y="95" width="6" height="4"></rect>
            <rect id="Rectangle" fill="#8C56F8" x="123" y="95" width="43" height="4"></rect>
            <rect id="Rectangle" fill="#8C56F8" x="150" y="123" width="6" height="4"></rect>
            <rect id="Rectangle" fill="#8C56F8" x="163" y="123" width="6" height="4"></rect>
            <rect id="Rectangle" fill="#8C56F8" x="100" y="123" width="43" height="4"></rect>
            <rect id="Rectangle" fill="#8C56F8" x="150" y="104" width="18" height="4"></rect>
            <rect id="Rectangle" fill="#8C56F8" x="175" y="104" width="18" height="4"></rect>
            <rect id="Rectangle" fill="#8C56F8" x="88" y="104" width="6" height="4"></rect>
            <rect id="Rectangle" fill="#8C56F8" x="101" y="104" width="43" height="4"></rect>
            <rect id="Rectangle" fill="#8C56F8" transform="translate(122.000000, 116.000000) rotate(-180.000000) translate(-122.000000, -116.000000) " x="113" y="114" width="18" height="4"></rect>
            <rect id="Rectangle" fill="#8C56F8" transform="translate(97.000000, 116.000000) rotate(-180.000000) translate(-97.000000, -116.000000) " x="88" y="114" width="18" height="4"></rect>
            <rect id="Rectangle" fill="#8C56F8" transform="translate(189.000000, 116.000000) rotate(-180.000000) translate(-189.000000, -116.000000) " x="186" y="114" width="6" height="4"></rect>
            <rect id="Rectangle" fill="#8C56F8" transform="translate(158.500000, 116.000000) rotate(-180.000000) translate(-158.500000, -116.000000) " x="137" y="114" width="43" height="4"></rect>
            <circle id="Oval" fill="#8C56F8" cx="140.5" cy="186.5" r="16.5"></circle>
            <path d="M247.220223,89.4858525 C242.396722,81.4069856 232.853803,81.0304749 232.853803,81.0304749 C232.853803,81.0304749 223.554776,79.8517375 217.589508,92.1559555 C212.029403,103.624494 204.355746,114.697597 216.354114,117.382307 L218.521365,110.695909 L219.863532,117.880099 C221.571869,118.001895 223.28565,118.030929 224.997187,117.96707 C237.846467,117.55585 250.083465,118.087384 249.689449,113.516895 C249.165659,107.441059 251.861405,97.259333 247.220223,89.4858525 Z" id="Path" fill="#2F2E41"></path>
            <path d="M230,105.259259 C230,105.259259 236.122449,113.814815 232.44898,120.740741 C228.77551,127.666667 241.020408,135 241.020408,135 L250,115.444444 C250,115.444444 239.387755,108.518519 242.244898,102 L230,105.259259 Z" id="Path" fill="#FBBEBE"></path>
            <circle id="Oval" fill="#FBBEBE" cx="233.5" cy="97.5" r="10.5"></circle>
            <path d="M197,109.790144 L205.796956,98.3780099 C205.796956,98.3780099 208.894426,86.4158791 213.380608,87.0223017 C217.86679,87.6287244 211.60867,101.367917 211.60867,101.367917 L202.867829,114 L197,109.790144 Z" id="Path" fill="#FBBEBE"></path>
            <polygon id="Path" fill="#FBBEBE" points="242 263.227273 244.863636 278.363636 251 280 249.363636 262"></polygon>
            <polygon id="Path" fill="#FBBEBE" points="304 247.36 314.914894 262.9 319.361702 265 323 258.7 312.085106 244"></polygon>
            <path d="M239.383702,128.491227 L232.591727,119.437809 C232.591727,119.437809 219.432573,121.89473 218.211075,123.131573 C216.989577,124.368415 221.468402,147.043858 221.468402,147.043858 C221.468402,147.043858 222.282734,153.228069 225.947227,156.526315 L229.61172,159 L259.741997,152.815788 L260.87492,139.24111 C261.709332,129.243198 258.341327,119.35252 251.598691,112 L251.598691,112 L246.356105,112.725701 L239.383702,128.491227 Z" id="Path" fill="#575A89"></path>
            <path d="M219.493841,123.185568 L217.405375,122.358951 L207.798431,121.532334 C207.798431,121.532334 204.456885,120.705718 205.292272,119.052484 C206.127658,117.399251 206.963044,116.985942 205.292272,116.572634 C203.621499,116.159326 203.203806,115.746017 203.621499,114.506092 C204.039192,113.266167 206.545351,110.786317 206.545351,110.786317 L199.444567,105 C199.444567,105 199.060247,105.268981 198.439054,105.76665 C194.913544,108.591096 183.758307,118.78149 191.926089,128.971885 C201.533033,140.957827 212.810749,147.984069 222,145.504219 L219.493841,123.185568 Z" id="Path" fill="#575A89"></path>
            <path d="M228.72965,157.099654 L228.72965,162.83917 C228.72965,162.83917 225.014293,169.808583 226.252745,176.36803 C227.491198,182.927477 227.904015,186.2072 227.904015,186.2072 C228.038757,191.785896 229.012769,197.313221 230.793738,202.605818 C233.683461,210.805126 224.188658,264.510598 236.160366,265.330529 C248.132073,266.15046 254.737153,266.970391 258.452511,262.870737 C262.167868,258.771082 252.260248,188.257027 252.260248,188.257027 C252.260248,188.257027 286.111284,258.361117 293.129181,255.491359 C300.147079,252.621601 317.898232,246.062154 315.834144,242.372465 C313.770057,238.682776 261.755051,156.689689 261.755051,156.689689 L260.103781,153 L228.72965,157.099654 Z" id="Path" fill="#2F2E41"></path>
            <path d="M248.148515,276.033227 C248.148515,276.033227 241.679868,275.626192 241.679868,277.661368 C241.679868,279.696544 238.445545,286.616142 238.445545,286.616142 C238.445545,286.616142 236.019802,294.756845 242.488449,293.942775 C248.957096,293.128705 253,285.802072 253,285.802072 L251.382838,278.068403 L248.148515,276.033227 Z" id="Path" fill="#2F2E41"></path>
            <path d="M317.381813,261.175862 C317.381813,261.175862 311.60872,257.436054 312.021084,259.929259 C312.433448,262.422465 312.845811,269.071011 315.732358,269.486546 C318.618904,269.90208 327.278543,272.395285 327.690906,273.226353 C328.10327,274.057421 338,277.381695 338,271.979751 C338,266.577806 331.814544,262.422465 331.814544,262.422465 L324.80436,257.02052 C324.80436,257.02052 320.268359,256.604986 319.443631,259.513725 C318.618904,262.422465 317.381813,261.175862 317.381813,261.175862 Z" id="Path" fill="#2F2E41"></path>
            <circle id="Oval" fill="#2F2E41" cx="234" cy="81" r="7"></circle>
            <path d="M225.527449,79 C225.527822,75.419535 228.320336,72.4164905 232,72.0394769 C229.247424,71.7558598 226.568924,73.0170494 225.100968,75.2879332 C223.633011,77.5588171 223.633011,80.4411829 225.100968,82.7120668 C226.568924,84.9829506 229.247424,86.2441402 232,85.9605231 C228.320336,85.5835095 225.527822,82.580465 225.527449,79 L225.527449,79 Z" id="Path" fill="#2F2E41"></path>
            <polygon id="Path" fill="#2F2E41" points="244.561126 88.9679307 235.350856 84 222.631216 86.0324873 220 98 226.550635 97.7408182 228.380834 93.3439236 228.380834 97.66808 231.403423 97.5485219 233.157702 90.5485219 234.254279 98 245 97.774261"></polygon>
            <path d="M244,157.077377 L229.614286,157.449433 C229.614286,157.449433 217.339238,159.734294 218.027932,154.994767 C218.716627,150.25524 230.691775,151.912919 230.691775,151.912919 L243.799978,150 L244,157.077377 Z" id="Path" fill="#FBBEBE"></path>
            <path d="M255.118975,111.034584 C256.598014,110.810163 258.020122,111.697589 258.471802,113.126818 C261.260227,121.933135 269.850586,151.402861 261.315536,155.445953 C251.262757,160.208007 243.926627,159.998632 243.926627,159.998632 L240,150.309399 L243.574554,146.947335 L247.390885,122.354858 L249.219582,111.930209 L255.118975,111.034584 Z" id="Path" fill="#575A89"></path>
            <polygon id="Path" fill="#000000" opacity="0.4" points="253 127 251.358974 143.727273 237 150 253 146.236364"></polygon>
        </g>
        <text id="LangModLabs" font-family="GillSans, Gill Sans" font-size="250" font-weight="normal">
            <tspan x="103.025879" y="352" fill="#8C56F8">Lang</tspan>
            <tspan x="563.963379" y="352" fill="#3F3D56">Mod</tspan>
            <tspan x="1024.53467" y="352" fill="#8C56F8">Labs</tspan>
        </text>
    </g>
</svg>